<?xml version="1.0" encoding="utf-8" standalone="no"?>
<!DOCTYPE svg PUBLIC "-//W3C//DTD SVG 1.1//EN"
  "http://www.w3.org/Graphics/SVG/1.1/DTD/svg11.dtd">
<!-- Created with matplotlib (https://matplotlib.org/) -->
<svg height="345.6pt" version="1.1" viewBox="0 0 460.8 345.6" width="460.8pt" xmlns="http://www.w3.org/2000/svg" xmlns:xlink="http://www.w3.org/1999/xlink">
 <defs>
  <style type="text/css">
*{stroke-linecap:butt;stroke-linejoin:round;white-space:pre;}
  </style>
 </defs>
 <g id="figure_1">
  <g id="patch_1">
   <path d="M 0 345.6 
L 460.8 345.6 
L 460.8 0 
L 0 0 
z
" style="fill:#ffffff;"/>
  </g>
  <g id="axes_1">
   <g id="LineCollection_1">
    <path clip-path="url(#p4732478e3f)" d="M 187.828284 223.856775 
L 157.899017 187.24035 
" style="fill:none;stroke:#000000;"/>
    <path clip-path="url(#p4732478e3f)" d="M 187.828284 223.856775 
L 157.899017 187.24035 
" style="fill:none;stroke:#000000;"/>
    <path clip-path="url(#p4732478e3f)" d="M 157.899017 187.24035 
L 179.760134 114.739394 
" style="fill:none;stroke:#000000;"/>
    <path clip-path="url(#p4732478e3f)" d="M 157.899017 187.24035 
L 179.760134 114.739394 
" style="fill:none;stroke:#000000;"/>
    <path clip-path="url(#p4732478e3f)" d="M 157.899017 187.24035 
L 115.381281 234.863676 
" style="fill:none;stroke:#000000;"/>
    <path clip-path="url(#p4732478e3f)" d="M 157.899017 187.24035 
L 115.381281 234.863676 
" style="fill:none;stroke:#000000;"/>
    <path clip-path="url(#p4732478e3f)" d="M 179.760134 114.739394 
L 171.048808 56.438614 
" style="fill:none;stroke:#000000;"/>
    <path clip-path="url(#p4732478e3f)" d="M 179.760134 114.739394 
L 171.048808 56.438614 
" style="fill:none;stroke:#000000;"/>
    <path clip-path="url(#p4732478e3f)" d="M 179.760134 114.739394 
L 214.89085 86.185993 
" style="fill:none;stroke:#000000;"/>
    <path clip-path="url(#p4732478e3f)" d="M 179.760134 114.739394 
L 214.89085 86.185993 
" style="fill:none;stroke:#000000;"/>
    <path clip-path="url(#p4732478e3f)" d="M 115.381281 234.863676 
L 75.258505 235.657053 
" style="fill:none;stroke:#000000;"/>
    <path clip-path="url(#p4732478e3f)" d="M 115.381281 234.863676 
L 75.258505 235.657053 
" style="fill:none;stroke:#000000;"/>
    <path clip-path="url(#p4732478e3f)" d="M 115.381281 234.863676 
L 104.128724 292.617386 
" style="fill:none;stroke:#000000;"/>
    <path clip-path="url(#p4732478e3f)" d="M 115.381281 234.863676 
L 104.128724 292.617386 
" style="fill:none;stroke:#000000;"/>
   </g>
   <g id="LineCollection_2">
    <path clip-path="url(#p4732478e3f)" d="M 330.28292 118.820951 
L 316.847689 168.500169 
" style="fill:none;stroke:#000000;"/>
    <path clip-path="url(#p4732478e3f)" d="M 330.28292 118.820951 
L 316.847689 168.500169 
" style="fill:none;stroke:#000000;"/>
    <path clip-path="url(#p4732478e3f)" d="M 316.847689 168.500169 
L 357.821131 212.003157 
" style="fill:none;stroke:#000000;"/>
    <path clip-path="url(#p4732478e3f)" d="M 316.847689 168.500169 
L 357.821131 212.003157 
" style="fill:none;stroke:#000000;"/>
    <path clip-path="url(#p4732478e3f)" d="M 316.847689 168.500169 
L 267.41746 156.808832 
" style="fill:none;stroke:#000000;"/>
    <path clip-path="url(#p4732478e3f)" d="M 316.847689 168.500169 
L 267.41746 156.808832 
" style="fill:none;stroke:#000000;"/>
    <path clip-path="url(#p4732478e3f)" d="M 357.821131 212.003157 
L 395.750697 210.544616 
" style="fill:none;stroke:#000000;"/>
    <path clip-path="url(#p4732478e3f)" d="M 357.821131 212.003157 
L 395.750697 210.544616 
" style="fill:none;stroke:#000000;"/>
    <path clip-path="url(#p4732478e3f)" d="M 357.821131 212.003157 
L 369.064262 265.453023 
" style="fill:none;stroke:#000000;"/>
    <path clip-path="url(#p4732478e3f)" d="M 357.821131 212.003157 
L 369.064262 265.453023 
" style="fill:none;stroke:#000000;"/>
    <path clip-path="url(#p4732478e3f)" d="M 267.41746 156.808832 
L 234.380749 183.301427 
" style="fill:none;stroke:#000000;"/>
    <path clip-path="url(#p4732478e3f)" d="M 267.41746 156.808832 
L 234.380749 183.301427 
" style="fill:none;stroke:#000000;"/>
    <path clip-path="url(#p4732478e3f)" d="M 267.41746 156.808832 
L 241.170678 116.167065 
" style="fill:none;stroke:#000000;"/>
    <path clip-path="url(#p4732478e3f)" d="M 267.41746 156.808832 
L 241.170678 116.167065 
" style="fill:none;stroke:#000000;"/>
   </g>
   <g id="text_1">
    <g id="patch_2">
     <path clip-path="url(#p4732478e3f)" d="M 166.141911 210.837008 
L 172.168713 214.073027 
Q 174.811805 215.492204 176.230982 212.849111 
L 180.809305 204.322385 
Q 182.228482 201.679293 179.58539 200.260116 
L 173.558588 197.024097 
Q 170.915496 195.604921 169.496319 198.248013 
L 164.917996 206.774739 
Q 163.498819 209.417831 166.141911 210.837008 
z
" style="fill:#ffffff;stroke:#ffffff;stroke-linejoin:miter;"/>
    </g>
    <g clip-path="url(#p4732478e3f)">
     <!-- A -->
     <defs>
      <path d="M 34.1875 63.1875 
L 20.796875 26.90625 
L 47.609375 26.90625 
z
M 28.609375 72.90625 
L 39.796875 72.90625 
L 67.578125 0 
L 57.328125 0 
L 50.6875 18.703125 
L 17.828125 18.703125 
L 11.1875 0 
L 0.78125 0 
z
" id="DejaVuSans-65"/>
     </defs>
     <g transform="translate(168.544903 206.361647)rotate(-331.766957)scale(0.1 -0.1)">
      <use xlink:href="#DejaVuSans-65"/>
     </g>
    </g>
   </g>
   <g id="text_2">
    <g id="patch_3">
     <path clip-path="url(#p4732478e3f)" d="M 173.313578 158.306602 
L 177.267758 152.551246 
Q 178.966578 150.078594 176.493926 148.379773 
L 168.517046 142.899309 
Q 166.044394 141.200489 164.345574 143.673141 
L 160.391393 149.428498 
Q 158.692573 151.90115 161.165225 153.59997 
L 169.142105 159.080435 
Q 171.614757 160.779255 173.313578 158.306602 
z
" style="fill:#ffffff;stroke:#ffffff;stroke-linejoin:miter;"/>
    </g>
    <g clip-path="url(#p4732478e3f)">
     <!-- C -->
     <defs>
      <path d="M 64.40625 67.28125 
L 64.40625 56.890625 
Q 59.421875 61.53125 53.78125 63.8125 
Q 48.140625 66.109375 41.796875 66.109375 
Q 29.296875 66.109375 22.65625 58.46875 
Q 16.015625 50.828125 16.015625 36.375 
Q 16.015625 21.96875 22.65625 14.328125 
Q 29.296875 6.6875 41.796875 6.6875 
Q 48.140625 6.6875 53.78125 8.984375 
Q 59.421875 11.28125 64.40625 15.921875 
L 64.40625 5.609375 
Q 59.234375 2.09375 53.4375 0.328125 
Q 47.65625 -1.421875 41.21875 -1.421875 
Q 24.65625 -1.421875 15.125 8.703125 
Q 5.609375 18.84375 5.609375 36.375 
Q 5.609375 53.953125 15.125 64.078125 
Q 24.65625 74.21875 41.21875 74.21875 
Q 47.75 74.21875 53.53125 72.484375 
Q 59.328125 70.75 64.40625 67.28125 
z
" id="DejaVuSans-67"/>
     </defs>
     <g transform="translate(169.12681 155.43011)rotate(-55.509237)scale(0.1 -0.1)">
      <use xlink:href="#DejaVuSans-67"/>
     </g>
    </g>
   </g>
   <g id="text_3">
    <g id="patch_4">
     <path clip-path="url(#p4732478e3f)" d="M 166.141911 210.837008 
L 172.168713 214.073027 
Q 174.811805 215.492204 176.230982 212.849111 
L 180.809305 204.322385 
Q 182.228482 201.679293 179.58539 200.260116 
L 173.558588 197.024097 
Q 170.915496 195.604921 169.496319 198.248013 
L 164.917996 206.774739 
Q 163.498819 209.417831 166.141911 210.837008 
z
" style="fill:#ffffff;stroke:#ffffff;stroke-linejoin:miter;"/>
    </g>
    <g clip-path="url(#p4732478e3f)">
     <!-- A -->
     <g transform="translate(168.544903 206.361647)rotate(-331.766957)scale(0.1 -0.1)">
      <use xlink:href="#DejaVuSans-65"/>
     </g>
    </g>
   </g>
   <g id="text_4">
    <g id="patch_5">
     <path clip-path="url(#p4732478e3f)" d="M 137.019811 219.600397 
L 143.177018 216.573639 
Q 145.869307 215.250165 144.545832 212.557877 
L 140.27625 203.872442 
Q 138.952776 201.180154 136.260487 202.503628 
L 130.10328 205.530386 
Q 127.410992 206.85386 128.734466 209.546149 
L 133.004049 218.231583 
Q 134.327523 220.923871 137.019811 219.600397 
z
" style="fill:#ffffff;stroke:#ffffff;stroke-linejoin:miter;"/>
    </g>
    <g clip-path="url(#p4732478e3f)">
     <!-- B -->
     <defs>
      <path d="M 19.671875 34.8125 
L 19.671875 8.109375 
L 35.5 8.109375 
Q 43.453125 8.109375 47.28125 11.40625 
Q 51.125 14.703125 51.125 21.484375 
Q 51.125 28.328125 47.28125 31.5625 
Q 43.453125 34.8125 35.5 34.8125 
z
M 19.671875 64.796875 
L 19.671875 42.828125 
L 34.28125 42.828125 
Q 41.5 42.828125 45.03125 45.53125 
Q 48.578125 48.25 48.578125 53.8125 
Q 48.578125 59.328125 45.03125 62.0625 
Q 41.5 64.796875 34.28125 64.796875 
z
M 9.8125 72.90625 
L 35.015625 72.90625 
Q 46.296875 72.90625 52.390625 68.21875 
Q 58.5 63.53125 58.5 54.890625 
Q 58.5 48.1875 55.375 44.234375 
Q 52.25 40.28125 46.1875 39.3125 
Q 53.46875 37.75 57.5 32.78125 
Q 61.53125 27.828125 61.53125 20.40625 
Q 61.53125 10.640625 54.890625 5.3125 
Q 48.25 0 35.984375 0 
L 9.8125 0 
z
" id="DejaVuSans-66"/>
     </defs>
     <g transform="translate(134.778866 215.041736)rotate(-26.177792)scale(0.1 -0.1)">
      <use xlink:href="#DejaVuSans-66"/>
     </g>
    </g>
   </g>
   <g id="text_5">
    <g id="patch_6">
     <path clip-path="url(#p4732478e3f)" d="M 91.967736 243.128813 
L 98.808104 243.06945 
Q 101.807991 243.043416 101.781957 240.043529 
L 101.697971 230.365769 
Q 101.671937 227.365882 98.67205 227.391916 
L 91.831682 227.451278 
Q 88.831795 227.477312 88.857829 230.477199 
L 88.941815 240.15496 
Q 88.967849 243.154847 91.967736 243.128813 
z
" style="fill:#ffffff;stroke:#ffffff;stroke-linejoin:miter;"/>
    </g>
    <g clip-path="url(#p4732478e3f)">
     <!-- A -->
     <g transform="translate(91.923655 238.049317)rotate(-0.497216)scale(0.1 -0.1)">
      <use xlink:href="#DejaVuSans-65"/>
     </g>
    </g>
   </g>
   <g id="text_6">
    <g id="patch_7">
     <path clip-path="url(#p4732478e3f)" d="M 137.019811 219.600397 
L 143.177018 216.573639 
Q 145.869307 215.250165 144.545832 212.557877 
L 140.27625 203.872442 
Q 138.952776 201.180154 136.260487 202.503628 
L 130.10328 205.530386 
Q 127.410992 206.85386 128.734466 209.546149 
L 133.004049 218.231583 
Q 134.327523 220.923871 137.019811 219.600397 
z
" style="fill:#ffffff;stroke:#ffffff;stroke-linejoin:miter;"/>
    </g>
    <g clip-path="url(#p4732478e3f)">
     <!-- B -->
     <g transform="translate(134.778866 215.041736)rotate(-26.177792)scale(0.1 -0.1)">
      <use xlink:href="#DejaVuSans-66"/>
     </g>
    </g>
   </g>
   <g id="text_7">
    <g id="patch_8">
     <path clip-path="url(#p4732478e3f)" d="M 115.503104 270.112355 
L 118.336419 263.730193 
Q 119.553686 260.988248 116.811741 259.770981 
L 107.966113 255.844028 
Q 105.224168 254.626761 104.006901 257.368706 
L 101.173586 263.750869 
Q 99.956319 266.492814 102.698264 267.71008 
L 111.543893 271.637033 
Q 114.285838 272.8543 115.503104 270.112355 
z
" style="fill:#ffffff;stroke:#ffffff;stroke-linejoin:miter;"/>
    </g>
    <g clip-path="url(#p4732478e3f)">
     <!-- C -->
     <g transform="translate(110.860363 268.051244)rotate(-66.061516)scale(0.1 -0.1)">
      <use xlink:href="#DejaVuSans-67"/>
     </g>
    </g>
   </g>
   <g id="text_8">
    <g id="patch_9">
     <path clip-path="url(#p4732478e3f)" d="M 166.878085 84.868058 
L 169.089316 91.362896 
Q 170.056194 94.202816 172.896114 93.235938 
L 182.057815 90.116749 
Q 184.897735 89.14987 183.930857 86.30995 
L 181.719627 79.815112 
Q 180.752748 76.975192 177.912828 77.94207 
L 168.751127 81.061259 
Q 165.911207 82.028137 166.878085 84.868058 
z
" style="fill:#ffffff;stroke:#ffffff;stroke-linejoin:miter;"/>
    </g>
    <g clip-path="url(#p4732478e3f)">
     <!-- B -->
     <g transform="translate(171.686721 83.230911)rotate(-288.801636)scale(0.1 -0.1)">
      <use xlink:href="#DejaVuSans-66"/>
     </g>
    </g>
   </g>
   <g id="text_9">
    <g id="patch_10">
     <path clip-path="url(#p4732478e3f)" d="M 196.737725 108.995218 
L 203.180712 106.696941 
Q 206.006325 105.689017 204.998401 102.863404 
L 201.746796 93.747858 
Q 200.738871 90.922245 197.913258 91.930169 
L 191.470272 94.228446 
Q 188.644659 95.23637 189.652583 98.061983 
L 192.904188 107.177529 
Q 193.912112 110.003142 196.737725 108.995218 
z
" style="fill:#ffffff;stroke:#ffffff;stroke-linejoin:miter;"/>
    </g>
    <g clip-path="url(#p4732478e3f)">
     <!-- A -->
     <g transform="translate(195.031079 104.210807)rotate(-19.63182)scale(0.1 -0.1)">
      <use xlink:href="#DejaVuSans-65"/>
     </g>
    </g>
   </g>
   <g id="text_10">
    <g id="patch_11">
     <path clip-path="url(#p4732478e3f)" d="M 173.313578 158.306602 
L 177.267758 152.551246 
Q 178.966578 150.078594 176.493926 148.379773 
L 168.517046 142.899309 
Q 166.044394 141.200489 164.345574 143.673141 
L 160.391393 149.428498 
Q 158.692573 151.90115 161.165225 153.59997 
L 169.142105 159.080435 
Q 171.614757 160.779255 173.313578 158.306602 
z
" style="fill:#ffffff;stroke:#ffffff;stroke-linejoin:miter;"/>
    </g>
    <g clip-path="url(#p4732478e3f)">
     <!-- C -->
     <g transform="translate(169.12681 155.43011)rotate(-55.509237)scale(0.1 -0.1)">
      <use xlink:href="#DejaVuSans-67"/>
     </g>
    </g>
   </g>
   <g id="text_11">
    <g id="patch_12">
     <path clip-path="url(#p4732478e3f)" d="M 91.967736 243.128813 
L 98.808104 243.06945 
Q 101.807991 243.043416 101.781957 240.043529 
L 101.697971 230.365769 
Q 101.671937 227.365882 98.67205 227.391916 
L 91.831682 227.451278 
Q 88.831795 227.477312 88.857829 230.477199 
L 88.941815 240.15496 
Q 88.967849 243.154847 91.967736 243.128813 
z
" style="fill:#ffffff;stroke:#ffffff;stroke-linejoin:miter;"/>
    </g>
    <g clip-path="url(#p4732478e3f)">
     <!-- A -->
     <g transform="translate(91.923655 238.049317)rotate(-0.497216)scale(0.1 -0.1)">
      <use xlink:href="#DejaVuSans-65"/>
     </g>
    </g>
   </g>
   <g id="text_12">
    <g id="patch_13">
     <path clip-path="url(#p4732478e3f)" d="M 115.503104 270.112355 
L 118.336419 263.730193 
Q 119.553686 260.988248 116.811741 259.770981 
L 107.966113 255.844028 
Q 105.224168 254.626761 104.006901 257.368706 
L 101.173586 263.750869 
Q 99.956319 266.492814 102.698264 267.71008 
L 111.543893 271.637033 
Q 114.285838 272.8543 115.503104 270.112355 
z
" style="fill:#ffffff;stroke:#ffffff;stroke-linejoin:miter;"/>
    </g>
    <g clip-path="url(#p4732478e3f)">
     <!-- C -->
     <g transform="translate(110.860363 268.051244)rotate(-66.061516)scale(0.1 -0.1)">
      <use xlink:href="#DejaVuSans-67"/>
     </g>
    </g>
   </g>
   <g id="text_13">
    <g id="patch_14">
     <path clip-path="url(#p4732478e3f)" d="M 196.737725 108.995218 
L 203.180712 106.696941 
Q 206.006325 105.689017 204.998401 102.863404 
L 201.746796 93.747858 
Q 200.738871 90.922245 197.913258 91.930169 
L 191.470272 94.228446 
Q 188.644659 95.23637 189.652583 98.061983 
L 192.904188 107.177529 
Q 193.912112 110.003142 196.737725 108.995218 
z
" style="fill:#ffffff;stroke:#ffffff;stroke-linejoin:miter;"/>
    </g>
    <g clip-path="url(#p4732478e3f)">
     <!-- A -->
     <g transform="translate(195.031079 104.210807)rotate(-19.63182)scale(0.1 -0.1)">
      <use xlink:href="#DejaVuSans-65"/>
     </g>
    </g>
   </g>
   <g id="text_14">
    <g id="patch_15">
     <path clip-path="url(#p4732478e3f)" d="M 166.878085 84.868058 
L 169.089316 91.362896 
Q 170.056194 94.202816 172.896114 93.235938 
L 182.057815 90.116749 
Q 184.897735 89.14987 183.930857 86.30995 
L 181.719627 79.815112 
Q 180.752748 76.975192 177.912828 77.94207 
L 168.751127 81.061259 
Q 165.911207 82.028137 166.878085 84.868058 
z
" style="fill:#ffffff;stroke:#ffffff;stroke-linejoin:miter;"/>
    </g>
    <g clip-path="url(#p4732478e3f)">
     <!-- B -->
     <g transform="translate(171.686721 83.230911)rotate(-288.801636)scale(0.1 -0.1)">
      <use xlink:href="#DejaVuSans-66"/>
     </g>
    </g>
   </g>
   <g id="text_15">
    <g id="patch_16">
     <path clip-path="url(#p4732478e3f)" d="M 330.239614 149.008741 
L 332.025437 142.405333 
Q 332.808621 139.509367 329.912655 138.726183 
L 320.570146 136.199598 
Q 317.674179 135.416413 316.890995 138.31238 
L 315.105172 144.915787 
Q 314.321988 147.811754 317.217954 148.594938 
L 326.560463 151.121523 
Q 329.45643 151.904707 330.239614 149.008741 
z
" style="fill:#ffffff;stroke:#ffffff;stroke-linejoin:miter;"/>
    </g>
    <g clip-path="url(#p4732478e3f)">
     <!-- A -->
     <g transform="translate(325.336079 147.68263)rotate(-74.866949)scale(0.1 -0.1)">
      <use xlink:href="#DejaVuSans-65"/>
     </g>
    </g>
   </g>
   <g id="text_16">
    <g id="patch_17">
     <path clip-path="url(#p4732478e3f)" d="M 329.275915 193.129105 
L 333.979952 198.123551 
Q 336.03683 200.307413 338.220692 198.250535 
L 345.265921 191.614961 
Q 347.449783 189.558083 345.392905 187.374221 
L 340.688868 182.379774 
Q 338.63199 180.195913 336.448128 182.252791 
L 329.402899 188.888365 
Q 327.219037 190.945243 329.275915 193.129105 
z
" style="fill:#ffffff;stroke:#ffffff;stroke-linejoin:miter;"/>
    </g>
    <g clip-path="url(#p4732478e3f)">
     <!-- B -->
     <g transform="translate(332.973693 189.646339)rotate(-313.284858)scale(0.1 -0.1)">
      <use xlink:href="#DejaVuSans-66"/>
     </g>
    </g>
   </g>
   <g id="text_17">
    <g id="patch_18">
     <path clip-path="url(#p4732478e3f)" d="M 330.239614 149.008741 
L 332.025437 142.405333 
Q 332.808621 139.509367 329.912655 138.726183 
L 320.570146 136.199598 
Q 317.674179 135.416413 316.890995 138.31238 
L 315.105172 144.915787 
Q 314.321988 147.811754 317.217954 148.594938 
L 326.560463 151.121523 
Q 329.45643 151.904707 330.239614 149.008741 
z
" style="fill:#ffffff;stroke:#ffffff;stroke-linejoin:miter;"/>
    </g>
    <g clip-path="url(#p4732478e3f)">
     <!-- A -->
     <g transform="translate(325.336079 147.68263)rotate(-74.866949)scale(0.1 -0.1)">
      <use xlink:href="#DejaVuSans-65"/>
     </g>
    </g>
   </g>
   <g id="text_18">
    <g id="patch_19">
     <path clip-path="url(#p4732478e3f)" d="M 286.930584 169.479463 
L 293.725909 171.086707 
Q 296.645359 171.777221 297.335873 168.857771 
L 299.563501 159.439503 
Q 300.254015 156.520052 297.334565 155.829538 
L 290.53924 154.222294 
Q 287.61979 153.53178 286.929276 156.45123 
L 284.701648 165.869499 
Q 284.011134 168.788949 286.930584 169.479463 
z
" style="fill:#ffffff;stroke:#ffffff;stroke-linejoin:miter;"/>
    </g>
    <g clip-path="url(#p4732478e3f)">
     <!-- C -->
     <g transform="translate(288.099783 164.536165)rotate(-346.692836)scale(0.1 -0.1)">
      <use xlink:href="#DejaVuSans-67"/>
     </g>
    </g>
   </g>
   <g id="text_19">
    <g id="patch_20">
     <path clip-path="url(#p4732478e3f)" d="M 373.598306 219.241318 
L 380.575962 218.973 
Q 383.573746 218.857724 383.45847 215.859939 
L 383.086582 206.188962 
Q 382.971306 203.191177 379.973521 203.306454 
L 372.995866 203.574772 
Q 369.998082 203.690049 370.113358 206.687833 
L 370.485245 216.358811 
Q 370.600522 219.356595 373.598306 219.241318 
z
" style="fill:#ffffff;stroke:#ffffff;stroke-linejoin:miter;"/>
    </g>
    <g clip-path="url(#p4732478e3f)">
     <!-- C -->
     <g transform="translate(373.403117 214.165382)rotate(-2.202163)scale(0.1 -0.1)">
      <use xlink:href="#DejaVuSans-67"/>
     </g>
    </g>
   </g>
   <g id="text_20">
    <g id="patch_21">
     <path clip-path="url(#p4732478e3f)" d="M 355.067457 236.994652 
L 356.475562 243.688783 
Q 357.093095 246.624537 360.028849 246.007004 
L 369.499715 244.014816 
Q 372.435469 243.397282 371.817936 240.461528 
L 370.409831 233.767397 
Q 369.792298 230.831643 366.856544 231.449176 
L 357.385678 233.441364 
Q 354.449924 234.058897 355.067457 236.994652 
z
" style="fill:#ffffff;stroke:#ffffff;stroke-linejoin:miter;"/>
    </g>
    <g clip-path="url(#p4732478e3f)">
     <!-- A -->
     <g transform="translate(360.038362 235.949026)rotate(-281.878935)scale(0.1 -0.1)">
      <use xlink:href="#DejaVuSans-65"/>
     </g>
    </g>
   </g>
   <g id="text_21">
    <g id="patch_22">
     <path clip-path="url(#p4732478e3f)" d="M 329.275915 193.129105 
L 333.979952 198.123551 
Q 336.03683 200.307413 338.220692 198.250535 
L 345.265921 191.614961 
Q 347.449783 189.558083 345.392905 187.374221 
L 340.688868 182.379774 
Q 338.63199 180.195913 336.448128 182.252791 
L 329.402899 188.888365 
Q 327.219037 190.945243 329.275915 193.129105 
z
" style="fill:#ffffff;stroke:#ffffff;stroke-linejoin:miter;"/>
    </g>
    <g clip-path="url(#p4732478e3f)">
     <!-- B -->
     <g transform="translate(332.973693 189.646339)rotate(-313.284858)scale(0.1 -0.1)">
      <use xlink:href="#DejaVuSans-66"/>
     </g>
    </g>
   </g>
   <g id="text_22">
    <g id="patch_23">
     <path clip-path="url(#p4732478e3f)" d="M 286.930584 169.479463 
L 293.725909 171.086707 
Q 296.645359 171.777221 297.335873 168.857771 
L 299.563501 159.439503 
Q 300.254015 156.520052 297.334565 155.829538 
L 290.53924 154.222294 
Q 287.61979 153.53178 286.929276 156.45123 
L 284.701648 165.869499 
Q 284.011134 168.788949 286.930584 169.479463 
z
" style="fill:#ffffff;stroke:#ffffff;stroke-linejoin:miter;"/>
    </g>
    <g clip-path="url(#p4732478e3f)">
     <!-- C -->
     <g transform="translate(288.099783 164.536165)rotate(-346.692836)scale(0.1 -0.1)">
      <use xlink:href="#DejaVuSans-67"/>
     </g>
    </g>
   </g>
   <g id="text_23">
    <g id="patch_24">
     <path clip-path="url(#p4732478e3f)" d="M 253.134939 178.31046 
L 258.471584 174.030931 
Q 260.812004 172.154116 258.935189 169.813696 
L 252.880505 162.263404 
Q 251.00369 159.922984 248.66327 161.799799 
L 243.326625 166.079328 
Q 240.986205 167.956143 242.86302 170.296563 
L 248.917704 177.846855 
Q 250.794519 180.187275 253.134939 178.31046 
z
" style="fill:#ffffff;stroke:#ffffff;stroke-linejoin:miter;"/>
    </g>
    <g clip-path="url(#p4732478e3f)">
     <!-- A -->
     <g transform="translate(249.957061 174.347593)rotate(-38.726608)scale(0.1 -0.1)">
      <use xlink:href="#DejaVuSans-65"/>
     </g>
    </g>
   </g>
   <g id="text_24">
    <g id="patch_25">
     <path clip-path="url(#p4732478e3f)" d="M 245.847807 137.85896 
L 249.569937 143.622484 
Q 251.197468 146.142631 253.717616 144.5151 
L 261.847715 139.264616 
Q 264.367862 137.637084 262.740331 135.116937 
L 259.018201 129.353413 
Q 257.390669 126.833266 254.870522 128.460797 
L 246.740423 133.711281 
Q 244.220275 135.338813 245.847807 137.85896 
z
" style="fill:#ffffff;stroke:#ffffff;stroke-linejoin:miter;"/>
    </g>
    <g clip-path="url(#p4732478e3f)">
     <!-- B -->
     <g transform="translate(250.114993 135.103176)rotate(-302.854701)scale(0.1 -0.1)">
      <use xlink:href="#DejaVuSans-66"/>
     </g>
    </g>
   </g>
   <g id="text_25">
    <g id="patch_26">
     <path clip-path="url(#p4732478e3f)" d="M 355.067457 236.994652 
L 356.475562 243.688783 
Q 357.093095 246.624537 360.028849 246.007004 
L 369.499715 244.014816 
Q 372.435469 243.397282 371.817936 240.461528 
L 370.409831 233.767397 
Q 369.792298 230.831643 366.856544 231.449176 
L 357.385678 233.441364 
Q 354.449924 234.058897 355.067457 236.994652 
z
" style="fill:#ffffff;stroke:#ffffff;stroke-linejoin:miter;"/>
    </g>
    <g clip-path="url(#p4732478e3f)">
     <!-- A -->
     <g transform="translate(360.038362 235.949026)rotate(-281.878935)scale(0.1 -0.1)">
      <use xlink:href="#DejaVuSans-65"/>
     </g>
    </g>
   </g>
   <g id="text_26">
    <g id="patch_27">
     <path clip-path="url(#p4732478e3f)" d="M 373.598306 219.241318 
L 380.575962 218.973 
Q 383.573746 218.857724 383.45847 215.859939 
L 383.086582 206.188962 
Q 382.971306 203.191177 379.973521 203.306454 
L 372.995866 203.574772 
Q 369.998082 203.690049 370.113358 206.687833 
L 370.485245 216.358811 
Q 370.600522 219.356595 373.598306 219.241318 
z
" style="fill:#ffffff;stroke:#ffffff;stroke-linejoin:miter;"/>
    </g>
    <g clip-path="url(#p4732478e3f)">
     <!-- C -->
     <g transform="translate(373.403117 214.165382)rotate(-2.202163)scale(0.1 -0.1)">
      <use xlink:href="#DejaVuSans-67"/>
     </g>
    </g>
   </g>
   <g id="text_27">
    <g id="patch_28">
     <path clip-path="url(#p4732478e3f)" d="M 253.134939 178.31046 
L 258.471584 174.030931 
Q 260.812004 172.154116 258.935189 169.813696 
L 252.880505 162.263404 
Q 251.00369 159.922984 248.66327 161.799799 
L 243.326625 166.079328 
Q 240.986205 167.956143 242.86302 170.296563 
L 248.917704 177.846855 
Q 250.794519 180.187275 253.134939 178.31046 
z
" style="fill:#ffffff;stroke:#ffffff;stroke-linejoin:miter;"/>
    </g>
    <g clip-path="url(#p4732478e3f)">
     <!-- A -->
     <g transform="translate(249.957061 174.347593)rotate(-38.726608)scale(0.1 -0.1)">
      <use xlink:href="#DejaVuSans-65"/>
     </g>
    </g>
   </g>
   <g id="text_28">
    <g id="patch_29">
     <path clip-path="url(#p4732478e3f)" d="M 245.847807 137.85896 
L 249.569937 143.622484 
Q 251.197468 146.142631 253.717616 144.5151 
L 261.847715 139.264616 
Q 264.367862 137.637084 262.740331 135.116937 
L 259.018201 129.353413 
Q 257.390669 126.833266 254.870522 128.460797 
L 246.740423 133.711281 
Q 244.220275 135.338813 245.847807 137.85896 
z
" style="fill:#ffffff;stroke:#ffffff;stroke-linejoin:miter;"/>
    </g>
    <g clip-path="url(#p4732478e3f)">
     <!-- B -->
     <g transform="translate(250.114993 135.103176)rotate(-302.854701)scale(0.1 -0.1)">
      <use xlink:href="#DejaVuSans-66"/>
     </g>
    </g>
   </g>
   <g id="PathCollection_1">
    <defs>
     <path d="M 0 8.660254 
C 2.296726 8.660254 4.499694 7.747755 6.123724 6.123724 
C 7.747755 4.499694 8.660254 2.296726 8.660254 0 
C 8.660254 -2.296726 7.747755 -4.499694 6.123724 -6.123724 
C 4.499694 -7.747755 2.296726 -8.660254 0 -8.660254 
C -2.296726 -8.660254 -4.499694 -7.747755 -6.123724 -6.123724 
C -7.747755 -4.499694 -8.660254 -2.296726 -8.660254 0 
C -8.660254 2.296726 -7.747755 4.499694 -6.123724 6.123724 
C -4.499694 7.747755 -2.296726 8.660254 0 8.660254 
z
" id="md3a8122242" style="stroke:#ff0000;"/>
    </defs>
    <g clip-path="url(#p4732478e3f)">
     <use style="fill:#ff0000;stroke:#ff0000;" x="187.828284" xlink:href="#md3a8122242" y="223.856775"/>
     <use style="fill:#ff0000;stroke:#ff0000;" x="157.899017" xlink:href="#md3a8122242" y="187.24035"/>
     <use style="fill:#ff0000;stroke:#ff0000;" x="179.760134" xlink:href="#md3a8122242" y="114.739394"/>
     <use style="fill:#ff0000;stroke:#ff0000;" x="115.381281" xlink:href="#md3a8122242" y="234.863676"/>
     <use style="fill:#ff0000;stroke:#ff0000;" x="75.258505" xlink:href="#md3a8122242" y="235.657053"/>
     <use style="fill:#ff0000;stroke:#ff0000;" x="104.128724" xlink:href="#md3a8122242" y="292.617386"/>
     <use style="fill:#ff0000;stroke:#ff0000;" x="171.048808" xlink:href="#md3a8122242" y="56.438614"/>
     <use style="fill:#ff0000;stroke:#ff0000;" x="214.89085" xlink:href="#md3a8122242" y="86.185993"/>
    </g>
   </g>
   <g id="PathCollection_2">
    <g clip-path="url(#p4732478e3f)">
     <use style="fill:#ff0000;stroke:#ff0000;" x="330.28292" xlink:href="#md3a8122242" y="118.820951"/>
     <use style="fill:#ff0000;stroke:#ff0000;" x="316.847689" xlink:href="#md3a8122242" y="168.500169"/>
     <use style="fill:#ff0000;stroke:#ff0000;" x="357.821131" xlink:href="#md3a8122242" y="212.003157"/>
     <use style="fill:#ff0000;stroke:#ff0000;" x="267.41746" xlink:href="#md3a8122242" y="156.808832"/>
     <use style="fill:#ff0000;stroke:#ff0000;" x="395.750697" xlink:href="#md3a8122242" y="210.544616"/>
     <use style="fill:#ff0000;stroke:#ff0000;" x="369.064262" xlink:href="#md3a8122242" y="265.453023"/>
     <use style="fill:#ff0000;stroke:#ff0000;" x="234.380749" xlink:href="#md3a8122242" y="183.301427"/>
     <use style="fill:#ff0000;stroke:#ff0000;" x="241.170678" xlink:href="#md3a8122242" y="116.167065"/>
    </g>
   </g>
   <g id="text_29">
    <g clip-path="url(#p4732478e3f)">
     <!-- 0 -->
     <defs>
      <path d="M 31.78125 66.40625 
Q 24.171875 66.40625 20.328125 58.90625 
Q 16.5 51.421875 16.5 36.375 
Q 16.5 21.390625 20.328125 13.890625 
Q 24.171875 6.390625 31.78125 6.390625 
Q 39.453125 6.390625 43.28125 13.890625 
Q 47.125 21.390625 47.125 36.375 
Q 47.125 51.421875 43.28125 58.90625 
Q 39.453125 66.40625 31.78125 66.40625 
z
M 31.78125 74.21875 
Q 44.046875 74.21875 50.515625 64.515625 
Q 56.984375 54.828125 56.984375 36.375 
Q 56.984375 17.96875 50.515625 8.265625 
Q 44.046875 -1.421875 31.78125 -1.421875 
Q 19.53125 -1.421875 13.0625 8.265625 
Q 6.59375 17.96875 6.59375 36.375 
Q 6.59375 54.828125 13.0625 64.515625 
Q 19.53125 74.21875 31.78125 74.21875 
z
" id="DejaVuSans-48"/>
     </defs>
     <g transform="translate(184.010784 227.168025)scale(0.12 -0.12)">
      <use xlink:href="#DejaVuSans-48"/>
     </g>
    </g>
   </g>
   <g id="text_30">
    <g clip-path="url(#p4732478e3f)">
     <!-- 1 -->
     <defs>
      <path d="M 12.40625 8.296875 
L 28.515625 8.296875 
L 28.515625 63.921875 
L 10.984375 60.40625 
L 10.984375 69.390625 
L 28.421875 72.90625 
L 38.28125 72.90625 
L 38.28125 8.296875 
L 54.390625 8.296875 
L 54.390625 0 
L 12.40625 0 
z
" id="DejaVuSans-49"/>
     </defs>
     <g transform="translate(154.081517 190.5516)scale(0.12 -0.12)">
      <use xlink:href="#DejaVuSans-49"/>
     </g>
    </g>
   </g>
   <g id="text_31">
    <g clip-path="url(#p4732478e3f)">
     <!-- 3 -->
     <defs>
      <path d="M 40.578125 39.3125 
Q 47.65625 37.796875 51.625 33 
Q 55.609375 28.21875 55.609375 21.1875 
Q 55.609375 10.40625 48.1875 4.484375 
Q 40.765625 -1.421875 27.09375 -1.421875 
Q 22.515625 -1.421875 17.65625 -0.515625 
Q 12.796875 0.390625 7.625 2.203125 
L 7.625 11.71875 
Q 11.71875 9.328125 16.59375 8.109375 
Q 21.484375 6.890625 26.8125 6.890625 
Q 36.078125 6.890625 40.9375 10.546875 
Q 45.796875 14.203125 45.796875 21.1875 
Q 45.796875 27.640625 41.28125 31.265625 
Q 36.765625 34.90625 28.71875 34.90625 
L 20.21875 34.90625 
L 20.21875 43.015625 
L 29.109375 43.015625 
Q 36.375 43.015625 40.234375 45.921875 
Q 44.09375 48.828125 44.09375 54.296875 
Q 44.09375 59.90625 40.109375 62.90625 
Q 36.140625 65.921875 28.71875 65.921875 
Q 24.65625 65.921875 20.015625 65.03125 
Q 15.375 64.15625 9.8125 62.3125 
L 9.8125 71.09375 
Q 15.4375 72.65625 20.34375 73.4375 
Q 25.25 74.21875 29.59375 74.21875 
Q 40.828125 74.21875 47.359375 69.109375 
Q 53.90625 64.015625 53.90625 55.328125 
Q 53.90625 49.265625 50.4375 45.09375 
Q 46.96875 40.921875 40.578125 39.3125 
z
" id="DejaVuSans-51"/>
     </defs>
     <g transform="translate(175.942634 118.050644)scale(0.12 -0.12)">
      <use xlink:href="#DejaVuSans-51"/>
     </g>
    </g>
   </g>
   <g id="text_32">
    <g clip-path="url(#p4732478e3f)">
     <!-- 2 -->
     <defs>
      <path d="M 19.1875 8.296875 
L 53.609375 8.296875 
L 53.609375 0 
L 7.328125 0 
L 7.328125 8.296875 
Q 12.9375 14.109375 22.625 23.890625 
Q 32.328125 33.6875 34.8125 36.53125 
Q 39.546875 41.84375 41.421875 45.53125 
Q 43.3125 49.21875 43.3125 52.78125 
Q 43.3125 58.59375 39.234375 62.25 
Q 35.15625 65.921875 28.609375 65.921875 
Q 23.96875 65.921875 18.8125 64.3125 
Q 13.671875 62.703125 7.8125 59.421875 
L 7.8125 69.390625 
Q 13.765625 71.78125 18.9375 73 
Q 24.125 74.21875 28.421875 74.21875 
Q 39.75 74.21875 46.484375 68.546875 
Q 53.21875 62.890625 53.21875 53.421875 
Q 53.21875 48.921875 51.53125 44.890625 
Q 49.859375 40.875 45.40625 35.40625 
Q 44.1875 33.984375 37.640625 27.21875 
Q 31.109375 20.453125 19.1875 8.296875 
z
" id="DejaVuSans-50"/>
     </defs>
     <g transform="translate(111.563781 238.174926)scale(0.12 -0.12)">
      <use xlink:href="#DejaVuSans-50"/>
     </g>
    </g>
   </g>
   <g id="text_33">
    <g clip-path="url(#p4732478e3f)">
     <!-- 4 -->
     <defs>
      <path d="M 37.796875 64.3125 
L 12.890625 25.390625 
L 37.796875 25.390625 
z
M 35.203125 72.90625 
L 47.609375 72.90625 
L 47.609375 25.390625 
L 58.015625 25.390625 
L 58.015625 17.1875 
L 47.609375 17.1875 
L 47.609375 0 
L 37.796875 0 
L 37.796875 17.1875 
L 4.890625 17.1875 
L 4.890625 26.703125 
z
" id="DejaVuSans-52"/>
     </defs>
     <g transform="translate(71.441005 238.968303)scale(0.12 -0.12)">
      <use xlink:href="#DejaVuSans-52"/>
     </g>
    </g>
   </g>
   <g id="text_34">
    <g clip-path="url(#p4732478e3f)">
     <!-- 5 -->
     <defs>
      <path d="M 10.796875 72.90625 
L 49.515625 72.90625 
L 49.515625 64.59375 
L 19.828125 64.59375 
L 19.828125 46.734375 
Q 21.96875 47.46875 24.109375 47.828125 
Q 26.265625 48.1875 28.421875 48.1875 
Q 40.625 48.1875 47.75 41.5 
Q 54.890625 34.8125 54.890625 23.390625 
Q 54.890625 11.625 47.5625 5.09375 
Q 40.234375 -1.421875 26.90625 -1.421875 
Q 22.3125 -1.421875 17.546875 -0.640625 
Q 12.796875 0.140625 7.71875 1.703125 
L 7.71875 11.625 
Q 12.109375 9.234375 16.796875 8.0625 
Q 21.484375 6.890625 26.703125 6.890625 
Q 35.15625 6.890625 40.078125 11.328125 
Q 45.015625 15.765625 45.015625 23.390625 
Q 45.015625 31 40.078125 35.4375 
Q 35.15625 39.890625 26.703125 39.890625 
Q 22.75 39.890625 18.8125 39.015625 
Q 14.890625 38.140625 10.796875 36.28125 
z
" id="DejaVuSans-53"/>
     </defs>
     <g transform="translate(100.311224 295.928636)scale(0.12 -0.12)">
      <use xlink:href="#DejaVuSans-53"/>
     </g>
    </g>
   </g>
   <g id="text_35">
    <g clip-path="url(#p4732478e3f)">
     <!-- 7 -->
     <defs>
      <path d="M 8.203125 72.90625 
L 55.078125 72.90625 
L 55.078125 68.703125 
L 28.609375 0 
L 18.3125 0 
L 43.21875 64.59375 
L 8.203125 64.59375 
z
" id="DejaVuSans-55"/>
     </defs>
     <g transform="translate(167.231308 59.749864)scale(0.12 -0.12)">
      <use xlink:href="#DejaVuSans-55"/>
     </g>
    </g>
   </g>
   <g id="text_36">
    <g clip-path="url(#p4732478e3f)">
     <!-- 6 -->
     <defs>
      <path d="M 33.015625 40.375 
Q 26.375 40.375 22.484375 35.828125 
Q 18.609375 31.296875 18.609375 23.390625 
Q 18.609375 15.53125 22.484375 10.953125 
Q 26.375 6.390625 33.015625 6.390625 
Q 39.65625 6.390625 43.53125 10.953125 
Q 47.40625 15.53125 47.40625 23.390625 
Q 47.40625 31.296875 43.53125 35.828125 
Q 39.65625 40.375 33.015625 40.375 
z
M 52.59375 71.296875 
L 52.59375 62.3125 
Q 48.875 64.0625 45.09375 64.984375 
Q 41.3125 65.921875 37.59375 65.921875 
Q 27.828125 65.921875 22.671875 59.328125 
Q 17.53125 52.734375 16.796875 39.40625 
Q 19.671875 43.65625 24.015625 45.921875 
Q 28.375 48.1875 33.59375 48.1875 
Q 44.578125 48.1875 50.953125 41.515625 
Q 57.328125 34.859375 57.328125 23.390625 
Q 57.328125 12.15625 50.6875 5.359375 
Q 44.046875 -1.421875 33.015625 -1.421875 
Q 20.359375 -1.421875 13.671875 8.265625 
Q 6.984375 17.96875 6.984375 36.375 
Q 6.984375 53.65625 15.1875 63.9375 
Q 23.390625 74.21875 37.203125 74.21875 
Q 40.921875 74.21875 44.703125 73.484375 
Q 48.484375 72.75 52.59375 71.296875 
z
" id="DejaVuSans-54"/>
     </defs>
     <g transform="translate(211.07335 89.497243)scale(0.12 -0.12)">
      <use xlink:href="#DejaVuSans-54"/>
     </g>
    </g>
   </g>
   <g id="text_37">
    <g clip-path="url(#p4732478e3f)">
     <!-- sword -->
     <defs>
      <path d="M 44.28125 53.078125 
L 44.28125 44.578125 
Q 40.484375 46.53125 36.375 47.5 
Q 32.28125 48.484375 27.875 48.484375 
Q 21.1875 48.484375 17.84375 46.4375 
Q 14.5 44.390625 14.5 40.28125 
Q 14.5 37.15625 16.890625 35.375 
Q 19.28125 33.59375 26.515625 31.984375 
L 29.59375 31.296875 
Q 39.15625 29.25 43.1875 25.515625 
Q 47.21875 21.78125 47.21875 15.09375 
Q 47.21875 7.46875 41.1875 3.015625 
Q 35.15625 -1.421875 24.609375 -1.421875 
Q 20.21875 -1.421875 15.453125 -0.5625 
Q 10.6875 0.296875 5.421875 2 
L 5.421875 11.28125 
Q 10.40625 8.6875 15.234375 7.390625 
Q 20.0625 6.109375 24.8125 6.109375 
Q 31.15625 6.109375 34.5625 8.28125 
Q 37.984375 10.453125 37.984375 14.40625 
Q 37.984375 18.0625 35.515625 20.015625 
Q 33.0625 21.96875 24.703125 23.78125 
L 21.578125 24.515625 
Q 13.234375 26.265625 9.515625 29.90625 
Q 5.8125 33.546875 5.8125 39.890625 
Q 5.8125 47.609375 11.28125 51.796875 
Q 16.75 56 26.8125 56 
Q 31.78125 56 36.171875 55.265625 
Q 40.578125 54.546875 44.28125 53.078125 
z
" id="DejaVuSans-115"/>
      <path d="M 4.203125 54.6875 
L 13.1875 54.6875 
L 24.421875 12.015625 
L 35.59375 54.6875 
L 46.1875 54.6875 
L 57.421875 12.015625 
L 68.609375 54.6875 
L 77.59375 54.6875 
L 63.28125 0 
L 52.6875 0 
L 40.921875 44.828125 
L 29.109375 0 
L 18.5 0 
z
" id="DejaVuSans-119"/>
      <path d="M 30.609375 48.390625 
Q 23.390625 48.390625 19.1875 42.75 
Q 14.984375 37.109375 14.984375 27.296875 
Q 14.984375 17.484375 19.15625 11.84375 
Q 23.34375 6.203125 30.609375 6.203125 
Q 37.796875 6.203125 41.984375 11.859375 
Q 46.1875 17.53125 46.1875 27.296875 
Q 46.1875 37.015625 41.984375 42.703125 
Q 37.796875 48.390625 30.609375 48.390625 
z
M 30.609375 56 
Q 42.328125 56 49.015625 48.375 
Q 55.71875 40.765625 55.71875 27.296875 
Q 55.71875 13.875 49.015625 6.21875 
Q 42.328125 -1.421875 30.609375 -1.421875 
Q 18.84375 -1.421875 12.171875 6.21875 
Q 5.515625 13.875 5.515625 27.296875 
Q 5.515625 40.765625 12.171875 48.375 
Q 18.84375 56 30.609375 56 
z
" id="DejaVuSans-111"/>
      <path d="M 41.109375 46.296875 
Q 39.59375 47.171875 37.8125 47.578125 
Q 36.03125 48 33.890625 48 
Q 26.265625 48 22.1875 43.046875 
Q 18.109375 38.09375 18.109375 28.8125 
L 18.109375 0 
L 9.078125 0 
L 9.078125 54.6875 
L 18.109375 54.6875 
L 18.109375 46.1875 
Q 20.953125 51.171875 25.484375 53.578125 
Q 30.03125 56 36.53125 56 
Q 37.453125 56 38.578125 55.875 
Q 39.703125 55.765625 41.0625 55.515625 
z
" id="DejaVuSans-114"/>
      <path d="M 45.40625 46.390625 
L 45.40625 75.984375 
L 54.390625 75.984375 
L 54.390625 0 
L 45.40625 0 
L 45.40625 8.203125 
Q 42.578125 3.328125 38.25 0.953125 
Q 33.9375 -1.421875 27.875 -1.421875 
Q 17.96875 -1.421875 11.734375 6.484375 
Q 5.515625 14.40625 5.515625 27.296875 
Q 5.515625 40.1875 11.734375 48.09375 
Q 17.96875 56 27.875 56 
Q 33.9375 56 38.25 53.625 
Q 42.578125 51.265625 45.40625 46.390625 
z
M 14.796875 27.296875 
Q 14.796875 17.390625 18.875 11.75 
Q 22.953125 6.109375 30.078125 6.109375 
Q 37.203125 6.109375 41.296875 11.75 
Q 45.40625 17.390625 45.40625 27.296875 
Q 45.40625 37.203125 41.296875 42.84375 
Q 37.203125 48.484375 30.078125 48.484375 
Q 22.953125 48.484375 18.875 42.84375 
Q 14.796875 37.203125 14.796875 27.296875 
z
" id="DejaVuSans-100"/>
     </defs>
     <g transform="translate(312.304482 122.132201)scale(0.12 -0.12)">
      <use xlink:href="#DejaVuSans-115"/>
      <use x="52.099609" xlink:href="#DejaVuSans-119"/>
      <use x="133.886719" xlink:href="#DejaVuSans-111"/>
      <use x="195.068359" xlink:href="#DejaVuSans-114"/>
      <use x="236.166016" xlink:href="#DejaVuSans-100"/>
     </g>
    </g>
   </g>
   <g id="text_38">
    <g clip-path="url(#p4732478e3f)">
     <!-- holygrail -->
     <defs>
      <path d="M 54.890625 33.015625 
L 54.890625 0 
L 45.90625 0 
L 45.90625 32.71875 
Q 45.90625 40.484375 42.875 44.328125 
Q 39.84375 48.1875 33.796875 48.1875 
Q 26.515625 48.1875 22.3125 43.546875 
Q 18.109375 38.921875 18.109375 30.90625 
L 18.109375 0 
L 9.078125 0 
L 9.078125 75.984375 
L 18.109375 75.984375 
L 18.109375 46.1875 
Q 21.34375 51.125 25.703125 53.5625 
Q 30.078125 56 35.796875 56 
Q 45.21875 56 50.046875 50.171875 
Q 54.890625 44.34375 54.890625 33.015625 
z
" id="DejaVuSans-104"/>
      <path d="M 9.421875 75.984375 
L 18.40625 75.984375 
L 18.40625 0 
L 9.421875 0 
z
" id="DejaVuSans-108"/>
      <path d="M 32.171875 -5.078125 
Q 28.375 -14.84375 24.75 -17.8125 
Q 21.140625 -20.796875 15.09375 -20.796875 
L 7.90625 -20.796875 
L 7.90625 -13.28125 
L 13.1875 -13.28125 
Q 16.890625 -13.28125 18.9375 -11.515625 
Q 21 -9.765625 23.484375 -3.21875 
L 25.09375 0.875 
L 2.984375 54.6875 
L 12.5 54.6875 
L 29.59375 11.921875 
L 46.6875 54.6875 
L 56.203125 54.6875 
z
" id="DejaVuSans-121"/>
      <path d="M 45.40625 27.984375 
Q 45.40625 37.75 41.375 43.109375 
Q 37.359375 48.484375 30.078125 48.484375 
Q 22.859375 48.484375 18.828125 43.109375 
Q 14.796875 37.75 14.796875 27.984375 
Q 14.796875 18.265625 18.828125 12.890625 
Q 22.859375 7.515625 30.078125 7.515625 
Q 37.359375 7.515625 41.375 12.890625 
Q 45.40625 18.265625 45.40625 27.984375 
z
M 54.390625 6.78125 
Q 54.390625 -7.171875 48.1875 -13.984375 
Q 42 -20.796875 29.203125 -20.796875 
Q 24.46875 -20.796875 20.265625 -20.09375 
Q 16.0625 -19.390625 12.109375 -17.921875 
L 12.109375 -9.1875 
Q 16.0625 -11.328125 19.921875 -12.34375 
Q 23.78125 -13.375 27.78125 -13.375 
Q 36.625 -13.375 41.015625 -8.765625 
Q 45.40625 -4.15625 45.40625 5.171875 
L 45.40625 9.625 
Q 42.625 4.78125 38.28125 2.390625 
Q 33.9375 0 27.875 0 
Q 17.828125 0 11.671875 7.65625 
Q 5.515625 15.328125 5.515625 27.984375 
Q 5.515625 40.671875 11.671875 48.328125 
Q 17.828125 56 27.875 56 
Q 33.9375 56 38.28125 53.609375 
Q 42.625 51.21875 45.40625 46.390625 
L 45.40625 54.6875 
L 54.390625 54.6875 
z
" id="DejaVuSans-103"/>
      <path d="M 34.28125 27.484375 
Q 23.390625 27.484375 19.1875 25 
Q 14.984375 22.515625 14.984375 16.5 
Q 14.984375 11.71875 18.140625 8.90625 
Q 21.296875 6.109375 26.703125 6.109375 
Q 34.1875 6.109375 38.703125 11.40625 
Q 43.21875 16.703125 43.21875 25.484375 
L 43.21875 27.484375 
z
M 52.203125 31.203125 
L 52.203125 0 
L 43.21875 0 
L 43.21875 8.296875 
Q 40.140625 3.328125 35.546875 0.953125 
Q 30.953125 -1.421875 24.3125 -1.421875 
Q 15.921875 -1.421875 10.953125 3.296875 
Q 6 8.015625 6 15.921875 
Q 6 25.140625 12.171875 29.828125 
Q 18.359375 34.515625 30.609375 34.515625 
L 43.21875 34.515625 
L 43.21875 35.40625 
Q 43.21875 41.609375 39.140625 45 
Q 35.0625 48.390625 27.6875 48.390625 
Q 23 48.390625 18.546875 47.265625 
Q 14.109375 46.140625 10.015625 43.890625 
L 10.015625 52.203125 
Q 14.9375 54.109375 19.578125 55.046875 
Q 24.21875 56 28.609375 56 
Q 40.484375 56 46.34375 49.84375 
Q 52.203125 43.703125 52.203125 31.203125 
z
" id="DejaVuSans-97"/>
      <path d="M 9.421875 54.6875 
L 18.40625 54.6875 
L 18.40625 0 
L 9.421875 0 
z
M 9.421875 75.984375 
L 18.40625 75.984375 
L 18.40625 64.59375 
L 9.421875 64.59375 
z
" id="DejaVuSans-105"/>
     </defs>
     <g transform="translate(290.869564 171.811419)scale(0.12 -0.12)">
      <use xlink:href="#DejaVuSans-104"/>
      <use x="63.378906" xlink:href="#DejaVuSans-111"/>
      <use x="124.560547" xlink:href="#DejaVuSans-108"/>
      <use x="152.34375" xlink:href="#DejaVuSans-121"/>
      <use x="211.523438" xlink:href="#DejaVuSans-103"/>
      <use x="275" xlink:href="#DejaVuSans-114"/>
      <use x="316.113281" xlink:href="#DejaVuSans-97"/>
      <use x="377.392578" xlink:href="#DejaVuSans-105"/>
      <use x="405.175781" xlink:href="#DejaVuSans-108"/>
     </g>
    </g>
   </g>
   <g id="text_39">
    <g clip-path="url(#p4732478e3f)">
     <!-- ring -->
     <defs>
      <path d="M 54.890625 33.015625 
L 54.890625 0 
L 45.90625 0 
L 45.90625 32.71875 
Q 45.90625 40.484375 42.875 44.328125 
Q 39.84375 48.1875 33.796875 48.1875 
Q 26.515625 48.1875 22.3125 43.546875 
Q 18.109375 38.921875 18.109375 30.90625 
L 18.109375 0 
L 9.078125 0 
L 9.078125 54.6875 
L 18.109375 54.6875 
L 18.109375 46.1875 
Q 21.34375 51.125 25.703125 53.5625 
Q 30.078125 56 35.796875 56 
Q 45.21875 56 50.046875 50.171875 
Q 54.890625 44.34375 54.890625 33.015625 
z
" id="DejaVuSans-110"/>
     </defs>
     <g transform="translate(346.076131 215.314407)scale(0.12 -0.12)">
      <use xlink:href="#DejaVuSans-114"/>
      <use x="41.113281" xlink:href="#DejaVuSans-105"/>
      <use x="68.896484" xlink:href="#DejaVuSans-110"/>
      <use x="132.275391" xlink:href="#DejaVuSans-103"/>
     </g>
    </g>
   </g>
   <g id="text_40">
    <g clip-path="url(#p4732478e3f)">
     <!-- scepterofawesomeness -->
     <defs>
      <path d="M 48.78125 52.59375 
L 48.78125 44.1875 
Q 44.96875 46.296875 41.140625 47.34375 
Q 37.3125 48.390625 33.40625 48.390625 
Q 24.65625 48.390625 19.8125 42.84375 
Q 14.984375 37.3125 14.984375 27.296875 
Q 14.984375 17.28125 19.8125 11.734375 
Q 24.65625 6.203125 33.40625 6.203125 
Q 37.3125 6.203125 41.140625 7.25 
Q 44.96875 8.296875 48.78125 10.40625 
L 48.78125 2.09375 
Q 45.015625 0.34375 40.984375 -0.53125 
Q 36.96875 -1.421875 32.421875 -1.421875 
Q 20.0625 -1.421875 12.78125 6.34375 
Q 5.515625 14.109375 5.515625 27.296875 
Q 5.515625 40.671875 12.859375 48.328125 
Q 20.21875 56 33.015625 56 
Q 37.15625 56 41.109375 55.140625 
Q 45.0625 54.296875 48.78125 52.59375 
z
" id="DejaVuSans-99"/>
      <path d="M 56.203125 29.59375 
L 56.203125 25.203125 
L 14.890625 25.203125 
Q 15.484375 15.921875 20.484375 11.0625 
Q 25.484375 6.203125 34.421875 6.203125 
Q 39.59375 6.203125 44.453125 7.46875 
Q 49.3125 8.734375 54.109375 11.28125 
L 54.109375 2.78125 
Q 49.265625 0.734375 44.1875 -0.34375 
Q 39.109375 -1.421875 33.890625 -1.421875 
Q 20.796875 -1.421875 13.15625 6.1875 
Q 5.515625 13.8125 5.515625 26.8125 
Q 5.515625 40.234375 12.765625 48.109375 
Q 20.015625 56 32.328125 56 
Q 43.359375 56 49.78125 48.890625 
Q 56.203125 41.796875 56.203125 29.59375 
z
M 47.21875 32.234375 
Q 47.125 39.59375 43.09375 43.984375 
Q 39.0625 48.390625 32.421875 48.390625 
Q 24.90625 48.390625 20.390625 44.140625 
Q 15.875 39.890625 15.1875 32.171875 
z
" id="DejaVuSans-101"/>
      <path d="M 18.109375 8.203125 
L 18.109375 -20.796875 
L 9.078125 -20.796875 
L 9.078125 54.6875 
L 18.109375 54.6875 
L 18.109375 46.390625 
Q 20.953125 51.265625 25.265625 53.625 
Q 29.59375 56 35.59375 56 
Q 45.5625 56 51.78125 48.09375 
Q 58.015625 40.1875 58.015625 27.296875 
Q 58.015625 14.40625 51.78125 6.484375 
Q 45.5625 -1.421875 35.59375 -1.421875 
Q 29.59375 -1.421875 25.265625 0.953125 
Q 20.953125 3.328125 18.109375 8.203125 
z
M 48.6875 27.296875 
Q 48.6875 37.203125 44.609375 42.84375 
Q 40.53125 48.484375 33.40625 48.484375 
Q 26.265625 48.484375 22.1875 42.84375 
Q 18.109375 37.203125 18.109375 27.296875 
Q 18.109375 17.390625 22.1875 11.75 
Q 26.265625 6.109375 33.40625 6.109375 
Q 40.53125 6.109375 44.609375 11.75 
Q 48.6875 17.390625 48.6875 27.296875 
z
" id="DejaVuSans-112"/>
      <path d="M 18.3125 70.21875 
L 18.3125 54.6875 
L 36.8125 54.6875 
L 36.8125 47.703125 
L 18.3125 47.703125 
L 18.3125 18.015625 
Q 18.3125 11.328125 20.140625 9.421875 
Q 21.96875 7.515625 27.59375 7.515625 
L 36.8125 7.515625 
L 36.8125 0 
L 27.59375 0 
Q 17.1875 0 13.234375 3.875 
Q 9.28125 7.765625 9.28125 18.015625 
L 9.28125 47.703125 
L 2.6875 47.703125 
L 2.6875 54.6875 
L 9.28125 54.6875 
L 9.28125 70.21875 
z
" id="DejaVuSans-116"/>
      <path d="M 37.109375 75.984375 
L 37.109375 68.5 
L 28.515625 68.5 
Q 23.6875 68.5 21.796875 66.546875 
Q 19.921875 64.59375 19.921875 59.515625 
L 19.921875 54.6875 
L 34.71875 54.6875 
L 34.71875 47.703125 
L 19.921875 47.703125 
L 19.921875 0 
L 10.890625 0 
L 10.890625 47.703125 
L 2.296875 47.703125 
L 2.296875 54.6875 
L 10.890625 54.6875 
L 10.890625 58.5 
Q 10.890625 67.625 15.140625 71.796875 
Q 19.390625 75.984375 28.609375 75.984375 
z
" id="DejaVuSans-102"/>
      <path d="M 52 44.1875 
Q 55.375 50.25 60.0625 53.125 
Q 64.75 56 71.09375 56 
Q 79.640625 56 84.28125 50.015625 
Q 88.921875 44.046875 88.921875 33.015625 
L 88.921875 0 
L 79.890625 0 
L 79.890625 32.71875 
Q 79.890625 40.578125 77.09375 44.375 
Q 74.3125 48.1875 68.609375 48.1875 
Q 61.625 48.1875 57.5625 43.546875 
Q 53.515625 38.921875 53.515625 30.90625 
L 53.515625 0 
L 44.484375 0 
L 44.484375 32.71875 
Q 44.484375 40.625 41.703125 44.40625 
Q 38.921875 48.1875 33.109375 48.1875 
Q 26.21875 48.1875 22.15625 43.53125 
Q 18.109375 38.875 18.109375 30.90625 
L 18.109375 0 
L 9.078125 0 
L 9.078125 54.6875 
L 18.109375 54.6875 
L 18.109375 46.1875 
Q 21.1875 51.21875 25.484375 53.609375 
Q 29.78125 56 35.6875 56 
Q 41.65625 56 45.828125 52.96875 
Q 50 49.953125 52 44.1875 
z
" id="DejaVuSans-109"/>
     </defs>
     <g transform="translate(196.845272 160.120082)scale(0.12 -0.12)">
      <use xlink:href="#DejaVuSans-115"/>
      <use x="52.099609" xlink:href="#DejaVuSans-99"/>
      <use x="107.080078" xlink:href="#DejaVuSans-101"/>
      <use x="168.603516" xlink:href="#DejaVuSans-112"/>
      <use x="232.080078" xlink:href="#DejaVuSans-116"/>
      <use x="271.289062" xlink:href="#DejaVuSans-101"/>
      <use x="332.8125" xlink:href="#DejaVuSans-114"/>
      <use x="373.894531" xlink:href="#DejaVuSans-111"/>
      <use x="435.076172" xlink:href="#DejaVuSans-102"/>
      <use x="470.28125" xlink:href="#DejaVuSans-97"/>
      <use x="531.560547" xlink:href="#DejaVuSans-119"/>
      <use x="613.347656" xlink:href="#DejaVuSans-101"/>
      <use x="674.871094" xlink:href="#DejaVuSans-115"/>
      <use x="726.970703" xlink:href="#DejaVuSans-111"/>
      <use x="788.152344" xlink:href="#DejaVuSans-109"/>
      <use x="885.564453" xlink:href="#DejaVuSans-101"/>
      <use x="947.087891" xlink:href="#DejaVuSans-110"/>
      <use x="1010.466797" xlink:href="#DejaVuSans-101"/>
      <use x="1071.990234" xlink:href="#DejaVuSans-115"/>
      <use x="1124.089844" xlink:href="#DejaVuSans-115"/>
     </g>
    </g>
   </g>
   <g id="text_41">
    <g clip-path="url(#p4732478e3f)">
     <!-- mightydagger -->
     <g transform="translate(326.775512 268.764273)scale(0.12 -0.12)">
      <use xlink:href="#DejaVuSans-109"/>
      <use x="97.412109" xlink:href="#DejaVuSans-105"/>
      <use x="125.195312" xlink:href="#DejaVuSans-103"/>
      <use x="188.671875" xlink:href="#DejaVuSans-104"/>
      <use x="252.050781" xlink:href="#DejaVuSans-116"/>
      <use x="291.259766" xlink:href="#DejaVuSans-121"/>
      <use x="350.439453" xlink:href="#DejaVuSans-100"/>
      <use x="413.916016" xlink:href="#DejaVuSans-97"/>
      <use x="475.195312" xlink:href="#DejaVuSans-103"/>
      <use x="538.671875" xlink:href="#DejaVuSans-103"/>
      <use x="602.148438" xlink:href="#DejaVuSans-101"/>
      <use x="663.671875" xlink:href="#DejaVuSans-114"/>
     </g>
    </g>
   </g>
   <g id="text_42">
    <g clip-path="url(#p4732478e3f)">
     <!-- bootsofswiftness -->
     <defs>
      <path d="M 48.6875 27.296875 
Q 48.6875 37.203125 44.609375 42.84375 
Q 40.53125 48.484375 33.40625 48.484375 
Q 26.265625 48.484375 22.1875 42.84375 
Q 18.109375 37.203125 18.109375 27.296875 
Q 18.109375 17.390625 22.1875 11.75 
Q 26.265625 6.109375 33.40625 6.109375 
Q 40.53125 6.109375 44.609375 11.75 
Q 48.6875 17.390625 48.6875 27.296875 
z
M 18.109375 46.390625 
Q 20.953125 51.265625 25.265625 53.625 
Q 29.59375 56 35.59375 56 
Q 45.5625 56 51.78125 48.09375 
Q 58.015625 40.1875 58.015625 27.296875 
Q 58.015625 14.40625 51.78125 6.484375 
Q 45.5625 -1.421875 35.59375 -1.421875 
Q 29.59375 -1.421875 25.265625 0.953125 
Q 20.953125 3.328125 18.109375 8.203125 
L 18.109375 0 
L 9.078125 0 
L 9.078125 75.984375 
L 18.109375 75.984375 
z
" id="DejaVuSans-98"/>
     </defs>
     <g transform="translate(345.429447 213.855866)scale(0.12 -0.12)">
      <use xlink:href="#DejaVuSans-98"/>
      <use x="63.476562" xlink:href="#DejaVuSans-111"/>
      <use x="124.658203" xlink:href="#DejaVuSans-111"/>
      <use x="185.839844" xlink:href="#DejaVuSans-116"/>
      <use x="225.048828" xlink:href="#DejaVuSans-115"/>
      <use x="277.148438" xlink:href="#DejaVuSans-111"/>
      <use x="338.330078" xlink:href="#DejaVuSans-102"/>
      <use x="373.535156" xlink:href="#DejaVuSans-115"/>
      <use x="425.634766" xlink:href="#DejaVuSans-119"/>
      <use x="507.421875" xlink:href="#DejaVuSans-105"/>
      <use x="535.205078" xlink:href="#DejaVuSans-102"/>
      <use x="570.394531" xlink:href="#DejaVuSans-116"/>
      <use x="609.603516" xlink:href="#DejaVuSans-110"/>
      <use x="672.982422" xlink:href="#DejaVuSans-101"/>
      <use x="734.505859" xlink:href="#DejaVuSans-115"/>
      <use x="786.605469" xlink:href="#DejaVuSans-115"/>
     </g>
    </g>
   </g>
   <g id="text_43">
    <g clip-path="url(#p4732478e3f)">
     <!-- A6 -->
     <g transform="translate(226.458874 186.612677)scale(0.12 -0.12)">
      <use xlink:href="#DejaVuSans-65"/>
      <use x="68.408203" xlink:href="#DejaVuSans-54"/>
     </g>
    </g>
   </g>
   <g id="text_44">
    <g clip-path="url(#p4732478e3f)">
     <!-- A7 -->
     <g transform="translate(233.248803 119.478315)scale(0.12 -0.12)">
      <use xlink:href="#DejaVuSans-65"/>
      <use x="68.408203" xlink:href="#DejaVuSans-55"/>
     </g>
    </g>
   </g>
   <g id="text_45">
    <!-- unique answer -->
    <defs>
     <path d="M 8.5 21.578125 
L 8.5 54.6875 
L 17.484375 54.6875 
L 17.484375 21.921875 
Q 17.484375 14.15625 20.5 10.265625 
Q 23.53125 6.390625 29.59375 6.390625 
Q 36.859375 6.390625 41.078125 11.03125 
Q 45.3125 15.671875 45.3125 23.6875 
L 45.3125 54.6875 
L 54.296875 54.6875 
L 54.296875 0 
L 45.3125 0 
L 45.3125 8.40625 
Q 42.046875 3.421875 37.71875 1 
Q 33.40625 -1.421875 27.6875 -1.421875 
Q 18.265625 -1.421875 13.375 4.4375 
Q 8.5 10.296875 8.5 21.578125 
z
M 31.109375 56 
z
" id="DejaVuSans-117"/>
     <path d="M 14.796875 27.296875 
Q 14.796875 17.390625 18.875 11.75 
Q 22.953125 6.109375 30.078125 6.109375 
Q 37.203125 6.109375 41.296875 11.75 
Q 45.40625 17.390625 45.40625 27.296875 
Q 45.40625 37.203125 41.296875 42.84375 
Q 37.203125 48.484375 30.078125 48.484375 
Q 22.953125 48.484375 18.875 42.84375 
Q 14.796875 37.203125 14.796875 27.296875 
z
M 45.40625 8.203125 
Q 42.578125 3.328125 38.25 0.953125 
Q 33.9375 -1.421875 27.875 -1.421875 
Q 17.96875 -1.421875 11.734375 6.484375 
Q 5.515625 14.40625 5.515625 27.296875 
Q 5.515625 40.1875 11.734375 48.09375 
Q 17.96875 56 27.875 56 
Q 33.9375 56 38.25 53.625 
Q 42.578125 51.265625 45.40625 46.390625 
L 45.40625 54.6875 
L 54.390625 54.6875 
L 54.390625 -20.796875 
L 45.40625 -20.796875 
z
" id="DejaVuSans-113"/>
     <path id="DejaVuSans-32"/>
    </defs>
    <g transform="translate(150.77445 178.949905)scale(0.1 -0.1)">
     <use xlink:href="#DejaVuSans-117"/>
     <use x="63.378906" xlink:href="#DejaVuSans-110"/>
     <use x="126.757812" xlink:href="#DejaVuSans-105"/>
     <use x="154.541016" xlink:href="#DejaVuSans-113"/>
     <use x="218.017578" xlink:href="#DejaVuSans-117"/>
     <use x="281.396484" xlink:href="#DejaVuSans-101"/>
     <use x="342.919922" xlink:href="#DejaVuSans-32"/>
     <use x="374.707031" xlink:href="#DejaVuSans-97"/>
     <use x="435.986328" xlink:href="#DejaVuSans-110"/>
     <use x="499.365234" xlink:href="#DejaVuSans-115"/>
     <use x="551.464844" xlink:href="#DejaVuSans-119"/>
     <use x="633.251953" xlink:href="#DejaVuSans-101"/>
     <use x="694.775391" xlink:href="#DejaVuSans-114"/>
    </g>
   </g>
  </g>
 </g>
 <defs>
  <clipPath id="p4732478e3f">
   <rect height="266.112" width="357.12" x="57.6" y="41.472"/>
  </clipPath>
 </defs>
</svg>
