<?xml version="1.0" encoding="UTF8" ?>
<svg xmlns="http://www.w3.org/2000/svg" version="1.0" baseProfile="full" viewBox="-986.060000 -968.060000 1944.120000 1695.120000" >
<line x1="939" y1="231" x2="939" y2="-752" stroke="#000000" stroke-width="1" stroke-linecap="round" vector-effect="non-scaling-stroke" fill="none" />
<line x1="-967" y1="-285" x2="345" y2="-285" stroke="#000000" stroke-width="1" stroke-linecap="round" vector-effect="non-scaling-stroke" fill="none" />
<line x1="454" y1="-223" x2="430" y2="-223" stroke="#000000" stroke-width="1" stroke-linecap="round" vector-effect="non-scaling-stroke" fill="none" />
<line x1="186" y1="-949" x2="186" y2="-121" stroke="#000000" stroke-width="1" stroke-linecap="round" vector-effect="non-scaling-stroke" fill="none" />
<line x1="186" y1="-949" x2="493" y2="-949" stroke="#000000" stroke-width="1" stroke-linecap="round" vector-effect="non-scaling-stroke" fill="none" />
<line x1="-967" y1="-285" x2="-967" y2="-163" stroke="#000000" stroke-width="1" stroke-linecap="round" vector-effect="non-scaling-stroke" fill="none" />
<line x1="-427" y1="-223" x2="430" y2="-223" stroke="#000000" stroke-width="1" stroke-linecap="round" vector-effect="non-scaling-stroke" fill="none" />
<line x1="657" y1="-949" x2="493" y2="-949" stroke="#000000" stroke-width="1" stroke-linecap="round" vector-effect="non-scaling-stroke" fill="none" />
<line x1="454" y1="708" x2="454" y2="-223" stroke="#000000" stroke-width="1" stroke-linecap="round" vector-effect="non-scaling-stroke" fill="none" />
<line x1="186" y1="-121" x2="8" y2="-121" stroke="#000000" stroke-width="1" stroke-linecap="round" vector-effect="non-scaling-stroke" fill="none" />
<line x1="939" y1="708" x2="939" y2="231" stroke="#000000" stroke-width="1" stroke-linecap="round" vector-effect="non-scaling-stroke" fill="none" />
<line x1="352" y1="-285" x2="657" y2="-285" stroke="#000000" stroke-width="1" stroke-linecap="round" vector-effect="non-scaling-stroke" fill="none" />
<line x1="8" y1="-121" x2="8" y2="-752" stroke="#000000" stroke-width="1" stroke-linecap="round" vector-effect="non-scaling-stroke" fill="none" />
<line x1="-967" y1="-163" x2="-427" y2="-163" stroke="#000000" stroke-width="1" stroke-linecap="round" vector-effect="non-scaling-stroke" fill="none" />
<line x1="454" y1="708" x2="939" y2="708" stroke="#000000" stroke-width="1" stroke-linecap="round" vector-effect="non-scaling-stroke" fill="none" />
<line x1="657" y1="-787" x2="657" y2="-285" stroke="#000000" stroke-width="1" stroke-linecap="round" vector-effect="non-scaling-stroke" fill="none" />
<line x1="8" y1="-752" x2="939" y2="-752" stroke="#000000" stroke-width="1" stroke-linecap="round" vector-effect="non-scaling-stroke" fill="none" />
<line x1="352" y1="-285" x2="345" y2="-285" stroke="#000000" stroke-width="1" stroke-linecap="round" vector-effect="non-scaling-stroke" fill="none" />
<line x1="-427" y1="-163" x2="-427" y2="-223" stroke="#000000" stroke-width="1" stroke-linecap="round" vector-effect="non-scaling-stroke" fill="none" />
<line x1="657" y1="-787" x2="657" y2="-949" stroke="#000000" stroke-width="1" stroke-linecap="round" vector-effect="non-scaling-stroke" fill="none" />
</svg>