<?xml version="1.0" encoding="UTF8" ?>
<svg xmlns="http://www.w3.org/2000/svg" version="1.0" baseProfile="full" viewBox="-203.980000 -203.980000 405.960000 405.960000" >
<line x1="-164" y1="101" x2="158" y2="-183" stroke="#000000" stroke-width="1" stroke-linecap="round" vector-effect="non-scaling-stroke" fill="none" />
<line x1="45" y1="-5" x2="137" y2="192" stroke="#000000" stroke-width="1" stroke-linecap="round" vector-effect="non-scaling-stroke" fill="none" />
<line x1="-200" y1="58" x2="1" y2="-107" stroke="#000000" stroke-width="1" stroke-linecap="round" vector-effect="non-scaling-stroke" fill="none" />
<line x1="198" y1="-145" x2="133" y2="159" stroke="#000000" stroke-width="1" stroke-linecap="round" vector-effect="non-scaling-stroke" fill="none" />
<line x1="180" y1="13" x2="-196" y2="-3" stroke="#000000" stroke-width="1" stroke-linecap="round" vector-effect="non-scaling-stroke" fill="none" />
<line x1="-164" y1="-42" x2="-164" y2="101" stroke="#000000" stroke-width="1" stroke-linecap="round" vector-effect="non-scaling-stroke" fill="none" />
<line x1="-157" y1="162" x2="-120" y2="105" stroke="#000000" stroke-width="1" stroke-linecap="round" vector-effect="non-scaling-stroke" fill="none" />
<line x1="-55" y1="129" x2="153" y2="-21" stroke="#000000" stroke-width="1" stroke-linecap="round" vector-effect="non-scaling-stroke" fill="none" />
<line x1="-122" y1="-107" x2="-84" y2="92" stroke="#000000" stroke-width="1" stroke-linecap="round" vector-effect="non-scaling-stroke" fill="none" />
<line x1="-97" y1="-178" x2="152" y2="111" stroke="#000000" stroke-width="1" stroke-linecap="round" vector-effect="non-scaling-stroke" fill="none" />
<line x1="-97" y1="-178" x2="-200" y2="58" stroke="#000000" stroke-width="1" stroke-linecap="round" vector-effect="non-scaling-stroke" fill="none" />
<line x1="191" y1="-142" x2="-24" y2="164" stroke="#000000" stroke-width="1" stroke-linecap="round" vector-effect="non-scaling-stroke" fill="none" />
<line x1="125" y1="-137" x2="-99" y2="-66" stroke="#000000" stroke-width="1" stroke-linecap="round" vector-effect="non-scaling-stroke" fill="none" />
<line x1="-200" y1="58" x2="152" y2="111" stroke="#000000" stroke-width="1" stroke-linecap="round" vector-effect="non-scaling-stroke" fill="none" />
<line x1="184" y1="53" x2="-20" y2="-15" stroke="#000000" stroke-width="1" stroke-linecap="round" vector-effect="non-scaling-stroke" fill="none" />
<line x1="17" y1="103" x2="145" y2="-102" stroke="#000000" stroke-width="1" stroke-linecap="round" vector-effect="non-scaling-stroke" fill="none" />
<line x1="-200" y1="58" x2="-49" y2="-5" stroke="#000000" stroke-width="1" stroke-linecap="round" vector-effect="non-scaling-stroke" fill="none" />
<line x1="137" y1="-24" x2="-105" y2="-183" stroke="#000000" stroke-width="1" stroke-linecap="round" vector-effect="non-scaling-stroke" fill="none" />
<line x1="119" y1="46" x2="-43" y2="-59" stroke="#000000" stroke-width="1" stroke-linecap="round" vector-effect="non-scaling-stroke" fill="none" />
<line x1="-132" y1="189" x2="46" y2="-178" stroke="#000000" stroke-width="1" stroke-linecap="round" vector-effect="non-scaling-stroke" fill="none" />
<line x1="-105" y1="-183" x2="87" y2="12" stroke="#000000" stroke-width="1" stroke-linecap="round" vector-effect="non-scaling-stroke" fill="none" />
<line x1="135" y1="68" x2="153" y2="-21" stroke="#000000" stroke-width="1" stroke-linecap="round" vector-effect="non-scaling-stroke" fill="none" />
<line x1="185" y1="102" x2="-186" y2="-115" stroke="#000000" stroke-width="1" stroke-linecap="round" vector-effect="non-scaling-stroke" fill="none" />
<line x1="149" y1="-89" x2="-122" y2="-107" stroke="#000000" stroke-width="1" stroke-linecap="round" vector-effect="non-scaling-stroke" fill="none" />
<line x1="-195" y1="-7" x2="3" y2="-42" stroke="#000000" stroke-width="1" stroke-linecap="round" vector-effect="non-scaling-stroke" fill="none" />
<line x1="137" y1="-24" x2="149" y2="-89" stroke="#000000" stroke-width="1" stroke-linecap="round" vector-effect="non-scaling-stroke" fill="none" />
<line x1="-103" y1="50" x2="197" y2="12" stroke="#000000" stroke-width="1" stroke-linecap="round" vector-effect="non-scaling-stroke" fill="none" />
<line x1="120" y1="-46" x2="-195" y2="-7" stroke="#000000" stroke-width="1" stroke-linecap="round" vector-effect="non-scaling-stroke" fill="none" />
<line x1="51" y1="135" x2="12" y2="-80" stroke="#000000" stroke-width="1" stroke-linecap="round" vector-effect="non-scaling-stroke" fill="none" />
<line x1="-168" y1="-194" x2="133" y2="-163" stroke="#000000" stroke-width="1" stroke-linecap="round" vector-effect="non-scaling-stroke" fill="none" />
<line x1="187" y1="-136" x2="184" y2="51" stroke="#000000" stroke-width="1" stroke-linecap="round" vector-effect="non-scaling-stroke" fill="none" />
<line x1="-120" y1="105" x2="123" y2="-56" stroke="#000000" stroke-width="1" stroke-linecap="round" vector-effect="non-scaling-stroke" fill="none" />
<line x1="45" y1="-5" x2="39" y2="-136" stroke="#000000" stroke-width="1" stroke-linecap="round" vector-effect="non-scaling-stroke" fill="none" />
<line x1="-186" y1="-115" x2="-73" y2="-29" stroke="#000000" stroke-width="1" stroke-linecap="round" vector-effect="non-scaling-stroke" fill="none" />
<line x1="-119" y1="-61" x2="-97" y2="-178" stroke="#000000" stroke-width="1" stroke-linecap="round" vector-effect="non-scaling-stroke" fill="none" />
<line x1="197" y1="-37" x2="71" y2="137" stroke="#000000" stroke-width="1" stroke-linecap="round" vector-effect="non-scaling-stroke" fill="none" />
<line x1="185" y1="102" x2="-73" y2="-29" stroke="#000000" stroke-width="1" stroke-linecap="round" vector-effect="non-scaling-stroke" fill="none" />
<line x1="78" y1="198" x2="-136" y2="61" stroke="#000000" stroke-width="1" stroke-linecap="round" vector-effect="non-scaling-stroke" fill="none" />
<line x1="-149" y1="36" x2="98" y2="32" stroke="#000000" stroke-width="1" stroke-linecap="round" vector-effect="non-scaling-stroke" fill="none" />
<line x1="152" y1="176" x2="-135" y2="50" stroke="#000000" stroke-width="1" stroke-linecap="round" vector-effect="non-scaling-stroke" fill="none" />
<line x1="-136" y1="61" x2="-145" y2="-27" stroke="#000000" stroke-width="1" stroke-linecap="round" vector-effect="non-scaling-stroke" fill="none" />
<line x1="-74" y1="51" x2="144" y2="-94" stroke="#000000" stroke-width="1" stroke-linecap="round" vector-effect="non-scaling-stroke" fill="none" />
<line x1="-109" y1="173" x2="158" y2="13" stroke="#000000" stroke-width="1" stroke-linecap="round" vector-effect="non-scaling-stroke" fill="none" />
<line x1="111" y1="-34" x2="-187" y2="-20" stroke="#000000" stroke-width="1" stroke-linecap="round" vector-effect="non-scaling-stroke" fill="none" />
<line x1="1" y1="-107" x2="-97" y2="-178" stroke="#000000" stroke-width="1" stroke-linecap="round" vector-effect="non-scaling-stroke" fill="none" />
<line x1="-36" y1="145" x2="145" y2="-102" stroke="#000000" stroke-width="1" stroke-linecap="round" vector-effect="non-scaling-stroke" fill="none" />
<line x1="198" y1="-145" x2="-144" y2="-21" stroke="#000000" stroke-width="1" stroke-linecap="round" vector-effect="non-scaling-stroke" fill="none" />
<line x1="17" y1="103" x2="-36" y2="145" stroke="#000000" stroke-width="1" stroke-linecap="round" vector-effect="non-scaling-stroke" fill="none" />
<line x1="45" y1="-5" x2="158" y2="38" stroke="#000000" stroke-width="1" stroke-linecap="round" vector-effect="non-scaling-stroke" fill="none" />
<line x1="114" y1="-31" x2="48" y2="-177" stroke="#000000" stroke-width="1" stroke-linecap="round" vector-effect="non-scaling-stroke" fill="none" />
<line x1="-92" y1="-67" x2="-109" y2="-119" stroke="#000000" stroke-width="1" stroke-linecap="round" vector-effect="non-scaling-stroke" fill="none" />
<line x1="-134" y1="-46" x2="-20" y2="-15" stroke="#000000" stroke-width="1" stroke-linecap="round" vector-effect="non-scaling-stroke" fill="none" />
<line x1="-84" y1="92" x2="149" y2="-89" stroke="#000000" stroke-width="1" stroke-linecap="round" vector-effect="non-scaling-stroke" fill="none" />
<line x1="1" y1="-107" x2="-119" y2="-61" stroke="#000000" stroke-width="1" stroke-linecap="round" vector-effect="non-scaling-stroke" fill="none" />
<line x1="43" y1="39" x2="198" y2="-145" stroke="#000000" stroke-width="1" stroke-linecap="round" vector-effect="non-scaling-stroke" fill="none" />
<line x1="-103" y1="50" x2="-70" y2="41" stroke="#000000" stroke-width="1" stroke-linecap="round" vector-effect="non-scaling-stroke" fill="none" />
<line x1="-79" y1="-185" x2="-69" y2="-29" stroke="#000000" stroke-width="1" stroke-linecap="round" vector-effect="non-scaling-stroke" fill="none" />
<line x1="-19" y1="175" x2="80" y2="145" stroke="#000000" stroke-width="1" stroke-linecap="round" vector-effect="non-scaling-stroke" fill="none" />
<line x1="17" y1="103" x2="-40" y2="189" stroke="#000000" stroke-width="1" stroke-linecap="round" vector-effect="non-scaling-stroke" fill="none" />
<line x1="-134" y1="-46" x2="-121" y2="117" stroke="#000000" stroke-width="1" stroke-linecap="round" vector-effect="non-scaling-stroke" fill="none" />
<line x1="105" y1="125" x2="-196" y2="-143" stroke="#000000" stroke-width="1" stroke-linecap="round" vector-effect="non-scaling-stroke" fill="none" />
<line x1="-196" y1="-143" x2="-74" y2="-118" stroke="#000000" stroke-width="1" stroke-linecap="round" vector-effect="non-scaling-stroke" fill="none" />
<line x1="-84" y1="92" x2="137" y2="-24" stroke="#000000" stroke-width="1" stroke-linecap="round" vector-effect="non-scaling-stroke" fill="none" />
<line x1="143" y1="-195" x2="-134" y2="-46" stroke="#000000" stroke-width="1" stroke-linecap="round" vector-effect="non-scaling-stroke" fill="none" />
<line x1="63" y1="-102" x2="-79" y2="-185" stroke="#000000" stroke-width="1" stroke-linecap="round" vector-effect="non-scaling-stroke" fill="none" />
<line x1="-48" y1="136" x2="-188" y2="109" stroke="#000000" stroke-width="1" stroke-linecap="round" vector-effect="non-scaling-stroke" fill="none" />
<line x1="-188" y1="-189" x2="-187" y2="-20" stroke="#000000" stroke-width="1" stroke-linecap="round" vector-effect="non-scaling-stroke" fill="none" />
<line x1="197" y1="-37" x2="-54" y2="-83" stroke="#000000" stroke-width="1" stroke-linecap="round" vector-effect="non-scaling-stroke" fill="none" />
<line x1="-196" y1="-143" x2="82" y2="-118" stroke="#000000" stroke-width="1" stroke-linecap="round" vector-effect="non-scaling-stroke" fill="none" />
<line x1="82" y1="-53" x2="17" y2="103" stroke="#000000" stroke-width="1" stroke-linecap="round" vector-effect="non-scaling-stroke" fill="none" />
<line x1="-55" y1="129" x2="135" y2="68" stroke="#000000" stroke-width="1" stroke-linecap="round" vector-effect="non-scaling-stroke" fill="none" />
<line x1="185" y1="102" x2="-101" y2="100" stroke="#000000" stroke-width="1" stroke-linecap="round" vector-effect="non-scaling-stroke" fill="none" />
<line x1="-109" y1="-119" x2="191" y2="-142" stroke="#000000" stroke-width="1" stroke-linecap="round" vector-effect="non-scaling-stroke" fill="none" />
<line x1="-73" y1="-29" x2="-101" y2="100" stroke="#000000" stroke-width="1" stroke-linecap="round" vector-effect="non-scaling-stroke" fill="none" />
<line x1="-60" y1="-14" x2="-110" y2="75" stroke="#000000" stroke-width="1" stroke-linecap="round" vector-effect="non-scaling-stroke" fill="none" />
<line x1="51" y1="9" x2="-132" y2="189" stroke="#000000" stroke-width="1" stroke-linecap="round" vector-effect="non-scaling-stroke" fill="none" />
<line x1="46" y1="-178" x2="76" y2="7" stroke="#000000" stroke-width="1" stroke-linecap="round" vector-effect="non-scaling-stroke" fill="none" />
<line x1="43" y1="-75" x2="-20" y2="-15" stroke="#000000" stroke-width="1" stroke-linecap="round" vector-effect="non-scaling-stroke" fill="none" />
<line x1="-168" y1="-194" x2="106" y2="123" stroke="#000000" stroke-width="1" stroke-linecap="round" vector-effect="non-scaling-stroke" fill="none" />
<line x1="39" y1="-136" x2="-109" y2="173" stroke="#000000" stroke-width="1" stroke-linecap="round" vector-effect="non-scaling-stroke" fill="none" />
<line x1="184" y1="53" x2="-134" y2="-46" stroke="#000000" stroke-width="1" stroke-linecap="round" vector-effect="non-scaling-stroke" fill="none" />
<line x1="-48" y1="136" x2="149" y2="104" stroke="#000000" stroke-width="1" stroke-linecap="round" vector-effect="non-scaling-stroke" fill="none" />
<line x1="149" y1="104" x2="-188" y2="109" stroke="#000000" stroke-width="1" stroke-linecap="round" vector-effect="non-scaling-stroke" fill="none" />
<line x1="-40" y1="-120" x2="144" y2="-94" stroke="#000000" stroke-width="1" stroke-linecap="round" vector-effect="non-scaling-stroke" fill="none" />
<line x1="86" y1="137" x2="76" y2="7" stroke="#000000" stroke-width="1" stroke-linecap="round" vector-effect="non-scaling-stroke" fill="none" />
<line x1="-97" y1="-115" x2="152" y2="176" stroke="#000000" stroke-width="1" stroke-linecap="round" vector-effect="non-scaling-stroke" fill="none" />
<line x1="155" y1="29" x2="-188" y2="-189" stroke="#000000" stroke-width="1" stroke-linecap="round" vector-effect="non-scaling-stroke" fill="none" />
<line x1="176" y1="-0" x2="4" y2="95" stroke="#000000" stroke-width="1" stroke-linecap="round" vector-effect="non-scaling-stroke" fill="none" />
<line x1="137" y1="-24" x2="-118" y2="188" stroke="#000000" stroke-width="1" stroke-linecap="round" vector-effect="non-scaling-stroke" fill="none" />
<line x1="24" y1="-128" x2="137" y2="192" stroke="#000000" stroke-width="1" stroke-linecap="round" vector-effect="non-scaling-stroke" fill="none" />
<line x1="-40" y1="-120" x2="114" y2="-31" stroke="#000000" stroke-width="1" stroke-linecap="round" vector-effect="non-scaling-stroke" fill="none" />
<line x1="12" y1="-80" x2="-157" y2="162" stroke="#000000" stroke-width="1" stroke-linecap="round" vector-effect="non-scaling-stroke" fill="none" />
<line x1="158" y1="38" x2="137" y2="192" stroke="#000000" stroke-width="1" stroke-linecap="round" vector-effect="non-scaling-stroke" fill="none" />
<line x1="-110" y1="75" x2="184" y2="51" stroke="#000000" stroke-width="1" stroke-linecap="round" vector-effect="non-scaling-stroke" fill="none" />
<line x1="-19" y1="175" x2="-164" y2="-42" stroke="#000000" stroke-width="1" stroke-linecap="round" vector-effect="non-scaling-stroke" fill="none" />
<line x1="123" y1="-56" x2="51" y2="135" stroke="#000000" stroke-width="1" stroke-linecap="round" vector-effect="non-scaling-stroke" fill="none" />
<line x1="24" y1="-128" x2="158" y2="13" stroke="#000000" stroke-width="1" stroke-linecap="round" vector-effect="non-scaling-stroke" fill="none" />
<line x1="-24" y1="164" x2="-109" y2="-119" stroke="#000000" stroke-width="1" stroke-linecap="round" vector-effect="non-scaling-stroke" fill="none" />
<line x1="86" y1="137" x2="51" y2="9" stroke="#000000" stroke-width="1" stroke-linecap="round" vector-effect="non-scaling-stroke" fill="none" />
<line x1="-54" y1="-83" x2="71" y2="137" stroke="#000000" stroke-width="1" stroke-linecap="round" vector-effect="non-scaling-stroke" fill="none" />
<line x1="82" y1="-118" x2="105" y2="125" stroke="#000000" stroke-width="1" stroke-linecap="round" vector-effect="non-scaling-stroke" fill="none" />
<line x1="-99" y1="136" x2="-149" y2="36" stroke="#000000" stroke-width="1" stroke-linecap="round" vector-effect="non-scaling-stroke" fill="none" />
<line x1="17" y1="103" x2="-196" y2="-3" stroke="#000000" stroke-width="1" stroke-linecap="round" vector-effect="non-scaling-stroke" fill="none" />
<line x1="-62" y1="76" x2="25" y2="-194" stroke="#000000" stroke-width="1" stroke-linecap="round" vector-effect="non-scaling-stroke" fill="none" />
<line x1="-135" y1="50" x2="-9" y2="-34" stroke="#000000" stroke-width="1" stroke-linecap="round" vector-effect="non-scaling-stroke" fill="none" />
<line x1="-200" y1="58" x2="-119" y2="-61" stroke="#000000" stroke-width="1" stroke-linecap="round" vector-effect="non-scaling-stroke" fill="none" />
<line x1="39" y1="-136" x2="137" y2="192" stroke="#000000" stroke-width="1" stroke-linecap="round" vector-effect="non-scaling-stroke" fill="none" />
<line x1="4" y1="95" x2="60" y2="-184" stroke="#000000" stroke-width="1" stroke-linecap="round" vector-effect="non-scaling-stroke" fill="none" />
<line x1="-118" y1="188" x2="87" y2="12" stroke="#000000" stroke-width="1" stroke-linecap="round" vector-effect="non-scaling-stroke" fill="none" />
<line x1="-43" y1="-149" x2="-74" y2="-118" stroke="#000000" stroke-width="1" stroke-linecap="round" vector-effect="non-scaling-stroke" fill="none" />
<line x1="-9" y1="-34" x2="-97" y2="-115" stroke="#000000" stroke-width="1" stroke-linecap="round" vector-effect="non-scaling-stroke" fill="none" />
<line x1="25" y1="-194" x2="-114" y2="102" stroke="#000000" stroke-width="1" stroke-linecap="round" vector-effect="non-scaling-stroke" fill="none" />
<line x1="-121" y1="117" x2="143" y2="-195" stroke="#000000" stroke-width="1" stroke-linecap="round" vector-effect="non-scaling-stroke" fill="none" />
<line x1="43" y1="-75" x2="-134" y2="-46" stroke="#000000" stroke-width="1" stroke-linecap="round" vector-effect="non-scaling-stroke" fill="none" />
<line x1="-194" y1="-182" x2="0" y2="-196" stroke="#000000" stroke-width="1" stroke-linecap="round" vector-effect="non-scaling-stroke" fill="none" />
<line x1="-40" y1="-120" x2="48" y2="-177" stroke="#000000" stroke-width="1" stroke-linecap="round" vector-effect="non-scaling-stroke" fill="none" />
<line x1="116" y1="174" x2="1" y2="-107" stroke="#000000" stroke-width="1" stroke-linecap="round" vector-effect="non-scaling-stroke" fill="none" />
<line x1="143" y1="-195" x2="-20" y2="-15" stroke="#000000" stroke-width="1" stroke-linecap="round" vector-effect="non-scaling-stroke" fill="none" />
<line x1="-157" y1="78" x2="143" y2="157" stroke="#000000" stroke-width="1" stroke-linecap="round" vector-effect="non-scaling-stroke" fill="none" />
<line x1="-9" y1="-34" x2="152" y2="176" stroke="#000000" stroke-width="1" stroke-linecap="round" vector-effect="non-scaling-stroke" fill="none" />
<line x1="60" y1="-8" x2="-92" y2="-67" stroke="#000000" stroke-width="1" stroke-linecap="round" vector-effect="non-scaling-stroke" fill="none" />
<line x1="-164" y1="101" x2="-148" y2="99" stroke="#000000" stroke-width="1" stroke-linecap="round" vector-effect="non-scaling-stroke" fill="none" />
<line x1="-157" y1="78" x2="-103" y2="50" stroke="#000000" stroke-width="1" stroke-linecap="round" vector-effect="non-scaling-stroke" fill="none" />
<line x1="-121" y1="117" x2="-20" y2="-15" stroke="#000000" stroke-width="1" stroke-linecap="round" vector-effect="non-scaling-stroke" fill="none" />
<line x1="-41" y1="-200" x2="0" y2="-196" stroke="#000000" stroke-width="1" stroke-linecap="round" vector-effect="non-scaling-stroke" fill="none" />
<line x1="60" y1="-184" x2="176" y2="-0" stroke="#000000" stroke-width="1" stroke-linecap="round" vector-effect="non-scaling-stroke" fill="none" />
<line x1="82" y1="-118" x2="-74" y2="-118" stroke="#000000" stroke-width="1" stroke-linecap="round" vector-effect="non-scaling-stroke" fill="none" />
<line x1="-110" y1="75" x2="-129" y2="155" stroke="#000000" stroke-width="1" stroke-linecap="round" vector-effect="non-scaling-stroke" fill="none" />
<line x1="-196" y1="-3" x2="-40" y2="189" stroke="#000000" stroke-width="1" stroke-linecap="round" vector-effect="non-scaling-stroke" fill="none" />
<line x1="155" y1="29" x2="-136" y2="25" stroke="#000000" stroke-width="1" stroke-linecap="round" vector-effect="non-scaling-stroke" fill="none" />
<line x1="-70" y1="41" x2="143" y2="157" stroke="#000000" stroke-width="1" stroke-linecap="round" vector-effect="non-scaling-stroke" fill="none" />
<line x1="-157" y1="162" x2="51" y2="135" stroke="#000000" stroke-width="1" stroke-linecap="round" vector-effect="non-scaling-stroke" fill="none" />
<line x1="45" y1="-5" x2="-109" y2="173" stroke="#000000" stroke-width="1" stroke-linecap="round" vector-effect="non-scaling-stroke" fill="none" />
<line x1="-136" y1="25" x2="-187" y2="-20" stroke="#000000" stroke-width="1" stroke-linecap="round" vector-effect="non-scaling-stroke" fill="none" />
<line x1="-62" y1="76" x2="-114" y2="102" stroke="#000000" stroke-width="1" stroke-linecap="round" vector-effect="non-scaling-stroke" fill="none" />
<line x1="145" y1="-102" x2="180" y2="13" stroke="#000000" stroke-width="1" stroke-linecap="round" vector-effect="non-scaling-stroke" fill="none" />
<line x1="-200" y1="-131" x2="4" y2="95" stroke="#000000" stroke-width="1" stroke-linecap="round" vector-effect="non-scaling-stroke" fill="none" />
<line x1="-103" y1="50" x2="143" y2="157" stroke="#000000" stroke-width="1" stroke-linecap="round" vector-effect="non-scaling-stroke" fill="none" />
<line x1="-164" y1="101" x2="-19" y2="175" stroke="#000000" stroke-width="1" stroke-linecap="round" vector-effect="non-scaling-stroke" fill="none" />
<line x1="187" y1="-136" x2="-110" y2="75" stroke="#000000" stroke-width="1" stroke-linecap="round" vector-effect="non-scaling-stroke" fill="none" />
<line x1="158" y1="-183" x2="138" y2="9" stroke="#000000" stroke-width="1" stroke-linecap="round" vector-effect="non-scaling-stroke" fill="none" />
<line x1="-84" y1="92" x2="-118" y2="188" stroke="#000000" stroke-width="1" stroke-linecap="round" vector-effect="non-scaling-stroke" fill="none" />
<line x1="-24" y1="164" x2="-92" y2="-67" stroke="#000000" stroke-width="1" stroke-linecap="round" vector-effect="non-scaling-stroke" fill="none" />
<line x1="187" y1="15" x2="12" y2="41" stroke="#000000" stroke-width="1" stroke-linecap="round" vector-effect="non-scaling-stroke" fill="none" />
<line x1="-155" y1="28" x2="-99" y2="-66" stroke="#000000" stroke-width="1" stroke-linecap="round" vector-effect="non-scaling-stroke" fill="none" />
<line x1="184" y1="53" x2="143" y2="-195" stroke="#000000" stroke-width="1" stroke-linecap="round" vector-effect="non-scaling-stroke" fill="none" />
<line x1="-48" y1="136" x2="-73" y2="-29" stroke="#000000" stroke-width="1" stroke-linecap="round" vector-effect="non-scaling-stroke" fill="none" />
<line x1="-43" y1="5" x2="-20" y2="-15" stroke="#000000" stroke-width="1" stroke-linecap="round" vector-effect="non-scaling-stroke" fill="none" />
<line x1="-19" y1="175" x2="158" y2="-183" stroke="#000000" stroke-width="1" stroke-linecap="round" vector-effect="non-scaling-stroke" fill="none" />
<line x1="-43" y1="-59" x2="197" y2="-37" stroke="#000000" stroke-width="1" stroke-linecap="round" vector-effect="non-scaling-stroke" fill="none" />
<line x1="82" y1="-53" x2="-40" y2="189" stroke="#000000" stroke-width="1" stroke-linecap="round" vector-effect="non-scaling-stroke" fill="none" />
<line x1="63" y1="-102" x2="-69" y2="-29" stroke="#000000" stroke-width="1" stroke-linecap="round" vector-effect="non-scaling-stroke" fill="none" />
<line x1="106" y1="123" x2="133" y2="-163" stroke="#000000" stroke-width="1" stroke-linecap="round" vector-effect="non-scaling-stroke" fill="none" />
<line x1="-109" y1="-119" x2="60" y2="-8" stroke="#000000" stroke-width="1" stroke-linecap="round" vector-effect="non-scaling-stroke" fill="none" />
<line x1="185" y1="102" x2="-48" y2="136" stroke="#000000" stroke-width="1" stroke-linecap="round" vector-effect="non-scaling-stroke" fill="none" />
<line x1="-186" y1="-115" x2="-188" y2="109" stroke="#000000" stroke-width="1" stroke-linecap="round" vector-effect="non-scaling-stroke" fill="none" />
<line x1="-194" y1="-182" x2="-41" y2="-200" stroke="#000000" stroke-width="1" stroke-linecap="round" vector-effect="non-scaling-stroke" fill="none" />
<line x1="137" y1="-24" x2="87" y2="12" stroke="#000000" stroke-width="1" stroke-linecap="round" vector-effect="non-scaling-stroke" fill="none" />
<line x1="60" y1="-184" x2="194" y2="-152" stroke="#000000" stroke-width="1" stroke-linecap="round" vector-effect="non-scaling-stroke" fill="none" />
<line x1="155" y1="29" x2="-187" y2="-20" stroke="#000000" stroke-width="1" stroke-linecap="round" vector-effect="non-scaling-stroke" fill="none" />
<line x1="-84" y1="92" x2="-105" y2="-183" stroke="#000000" stroke-width="1" stroke-linecap="round" vector-effect="non-scaling-stroke" fill="none" />
<line x1="46" y1="-178" x2="51" y2="9" stroke="#000000" stroke-width="1" stroke-linecap="round" vector-effect="non-scaling-stroke" fill="none" />
<line x1="39" y1="-136" x2="158" y2="13" stroke="#000000" stroke-width="1" stroke-linecap="round" vector-effect="non-scaling-stroke" fill="none" />
<line x1="71" y1="137" x2="119" y2="46" stroke="#000000" stroke-width="1" stroke-linecap="round" vector-effect="non-scaling-stroke" fill="none" />
<line x1="-54" y1="-83" x2="119" y2="46" stroke="#000000" stroke-width="1" stroke-linecap="round" vector-effect="non-scaling-stroke" fill="none" />
<line x1="-60" y1="-14" x2="184" y2="51" stroke="#000000" stroke-width="1" stroke-linecap="round" vector-effect="non-scaling-stroke" fill="none" />
<line x1="105" y1="125" x2="-74" y2="-118" stroke="#000000" stroke-width="1" stroke-linecap="round" vector-effect="non-scaling-stroke" fill="none" />
<line x1="-49" y1="-5" x2="-97" y2="-178" stroke="#000000" stroke-width="1" stroke-linecap="round" vector-effect="non-scaling-stroke" fill="none" />
<line x1="24" y1="-128" x2="39" y2="-136" stroke="#000000" stroke-width="1" stroke-linecap="round" vector-effect="non-scaling-stroke" fill="none" />
<line x1="82" y1="-53" x2="-36" y2="145" stroke="#000000" stroke-width="1" stroke-linecap="round" vector-effect="non-scaling-stroke" fill="none" />
<line x1="-188" y1="-189" x2="111" y2="-34" stroke="#000000" stroke-width="1" stroke-linecap="round" vector-effect="non-scaling-stroke" fill="none" />
<line x1="39" y1="-136" x2="158" y2="38" stroke="#000000" stroke-width="1" stroke-linecap="round" vector-effect="non-scaling-stroke" fill="none" />
<line x1="-122" y1="-107" x2="-105" y2="-183" stroke="#000000" stroke-width="1" stroke-linecap="round" vector-effect="non-scaling-stroke" fill="none" />
<line x1="60" y1="-8" x2="191" y2="-142" stroke="#000000" stroke-width="1" stroke-linecap="round" vector-effect="non-scaling-stroke" fill="none" />
<line x1="-40" y1="189" x2="180" y2="13" stroke="#000000" stroke-width="1" stroke-linecap="round" vector-effect="non-scaling-stroke" fill="none" />
<line x1="-48" y1="136" x2="-101" y2="100" stroke="#000000" stroke-width="1" stroke-linecap="round" vector-effect="non-scaling-stroke" fill="none" />
<line x1="185" y1="102" x2="149" y2="104" stroke="#000000" stroke-width="1" stroke-linecap="round" vector-effect="non-scaling-stroke" fill="none" />
<line x1="43" y1="-75" x2="143" y2="-195" stroke="#000000" stroke-width="1" stroke-linecap="round" vector-effect="non-scaling-stroke" fill="none" />
<line x1="111" y1="-34" x2="155" y2="29" stroke="#000000" stroke-width="1" stroke-linecap="round" vector-effect="non-scaling-stroke" fill="none" />
<line x1="87" y1="12" x2="-84" y2="92" stroke="#000000" stroke-width="1" stroke-linecap="round" vector-effect="non-scaling-stroke" fill="none" />
<line x1="-40" y1="189" x2="145" y2="-102" stroke="#000000" stroke-width="1" stroke-linecap="round" vector-effect="non-scaling-stroke" fill="none" />
<line x1="82" y1="-53" x2="-196" y2="-3" stroke="#000000" stroke-width="1" stroke-linecap="round" vector-effect="non-scaling-stroke" fill="none" />
<line x1="71" y1="137" x2="-43" y2="-59" stroke="#000000" stroke-width="1" stroke-linecap="round" vector-effect="non-scaling-stroke" fill="none" />
<line x1="-200" y1="-131" x2="176" y2="-0" stroke="#000000" stroke-width="1" stroke-linecap="round" vector-effect="non-scaling-stroke" fill="none" />
<line x1="152" y1="111" x2="1" y2="-107" stroke="#000000" stroke-width="1" stroke-linecap="round" vector-effect="non-scaling-stroke" fill="none" />
<line x1="158" y1="13" x2="137" y2="192" stroke="#000000" stroke-width="1" stroke-linecap="round" vector-effect="non-scaling-stroke" fill="none" />
<line x1="43" y1="39" x2="133" y2="159" stroke="#000000" stroke-width="1" stroke-linecap="round" vector-effect="non-scaling-stroke" fill="none" />
<line x1="187" y1="15" x2="99" y2="93" stroke="#000000" stroke-width="1" stroke-linecap="round" vector-effect="non-scaling-stroke" fill="none" />
<line x1="180" y1="13" x2="-36" y2="145" stroke="#000000" stroke-width="1" stroke-linecap="round" vector-effect="non-scaling-stroke" fill="none" />
<line x1="48" y1="-177" x2="-74" y2="51" stroke="#000000" stroke-width="1" stroke-linecap="round" vector-effect="non-scaling-stroke" fill="none" />
<line x1="138" y1="9" x2="-164" y2="101" stroke="#000000" stroke-width="1" stroke-linecap="round" vector-effect="non-scaling-stroke" fill="none" />
<line x1="-121" y1="117" x2="184" y2="53" stroke="#000000" stroke-width="1" stroke-linecap="round" vector-effect="non-scaling-stroke" fill="none" />
<line x1="82" y1="-53" x2="145" y2="-102" stroke="#000000" stroke-width="1" stroke-linecap="round" vector-effect="non-scaling-stroke" fill="none" />
<line x1="-49" y1="-5" x2="1" y2="-107" stroke="#000000" stroke-width="1" stroke-linecap="round" vector-effect="non-scaling-stroke" fill="none" />
<line x1="-97" y1="-115" x2="-135" y2="50" stroke="#000000" stroke-width="1" stroke-linecap="round" vector-effect="non-scaling-stroke" fill="none" />
<line x1="114" y1="-31" x2="144" y2="-94" stroke="#000000" stroke-width="1" stroke-linecap="round" vector-effect="non-scaling-stroke" fill="none" />
<line x1="137" y1="192" x2="-109" y2="173" stroke="#000000" stroke-width="1" stroke-linecap="round" vector-effect="non-scaling-stroke" fill="none" />
<line x1="133" y1="159" x2="-144" y2="-21" stroke="#000000" stroke-width="1" stroke-linecap="round" vector-effect="non-scaling-stroke" fill="none" />
<line x1="-196" y1="-3" x2="145" y2="-102" stroke="#000000" stroke-width="1" stroke-linecap="round" vector-effect="non-scaling-stroke" fill="none" />
<line x1="-101" y1="100" x2="-188" y2="109" stroke="#000000" stroke-width="1" stroke-linecap="round" vector-effect="non-scaling-stroke" fill="none" />
<line x1="-134" y1="-46" x2="-43" y2="5" stroke="#000000" stroke-width="1" stroke-linecap="round" vector-effect="non-scaling-stroke" fill="none" />
<line x1="60" y1="-184" x2="-200" y2="-131" stroke="#000000" stroke-width="1" stroke-linecap="round" vector-effect="non-scaling-stroke" fill="none" />
<line x1="80" y1="145" x2="-164" y2="-42" stroke="#000000" stroke-width="1" stroke-linecap="round" vector-effect="non-scaling-stroke" fill="none" />
<line x1="138" y1="9" x2="-148" y2="99" stroke="#000000" stroke-width="1" stroke-linecap="round" vector-effect="non-scaling-stroke" fill="none" />
<line x1="-188" y1="109" x2="185" y2="102" stroke="#000000" stroke-width="1" stroke-linecap="round" vector-effect="non-scaling-stroke" fill="none" />
<line x1="12" y1="-80" x2="123" y2="-56" stroke="#000000" stroke-width="1" stroke-linecap="round" vector-effect="non-scaling-stroke" fill="none" />
<line x1="-136" y1="25" x2="111" y2="-34" stroke="#000000" stroke-width="1" stroke-linecap="round" vector-effect="non-scaling-stroke" fill="none" />
<line x1="-48" y1="136" x2="-186" y2="-115" stroke="#000000" stroke-width="1" stroke-linecap="round" vector-effect="non-scaling-stroke" fill="none" />
<line x1="-155" y1="28" x2="125" y2="-137" stroke="#000000" stroke-width="1" stroke-linecap="round" vector-effect="non-scaling-stroke" fill="none" />
<line x1="149" y1="-89" x2="-118" y2="188" stroke="#000000" stroke-width="1" stroke-linecap="round" vector-effect="non-scaling-stroke" fill="none" />
<line x1="-19" y1="175" x2="-148" y2="99" stroke="#000000" stroke-width="1" stroke-linecap="round" vector-effect="non-scaling-stroke" fill="none" />
<line x1="197" y1="-37" x2="119" y2="46" stroke="#000000" stroke-width="1" stroke-linecap="round" vector-effect="non-scaling-stroke" fill="none" />
<line x1="176" y1="-0" x2="194" y2="-152" stroke="#000000" stroke-width="1" stroke-linecap="round" vector-effect="non-scaling-stroke" fill="none" />
<line x1="-148" y1="99" x2="-164" y2="-42" stroke="#000000" stroke-width="1" stroke-linecap="round" vector-effect="non-scaling-stroke" fill="none" />
<line x1="116" y1="174" x2="-97" y2="-178" stroke="#000000" stroke-width="1" stroke-linecap="round" vector-effect="non-scaling-stroke" fill="none" />
<line x1="-157" y1="78" x2="-70" y2="41" stroke="#000000" stroke-width="1" stroke-linecap="round" vector-effect="non-scaling-stroke" fill="none" />
<line x1="-119" y1="-61" x2="116" y2="174" stroke="#000000" stroke-width="1" stroke-linecap="round" vector-effect="non-scaling-stroke" fill="none" />
<line x1="-9" y1="-34" x2="-22" y2="-28" stroke="#000000" stroke-width="1" stroke-linecap="round" vector-effect="non-scaling-stroke" fill="none" />
<line x1="187" y1="-136" x2="-129" y2="155" stroke="#000000" stroke-width="1" stroke-linecap="round" vector-effect="non-scaling-stroke" fill="none" />
<line x1="149" y1="-89" x2="87" y2="12" stroke="#000000" stroke-width="1" stroke-linecap="round" vector-effect="non-scaling-stroke" fill="none" />
<line x1="159" y1="-130" x2="83" y2="21" stroke="#000000" stroke-width="1" stroke-linecap="round" vector-effect="non-scaling-stroke" fill="none" />
<line x1="197" y1="12" x2="-157" y2="78" stroke="#000000" stroke-width="1" stroke-linecap="round" vector-effect="non-scaling-stroke" fill="none" />
<line x1="143" y1="-195" x2="-43" y2="5" stroke="#000000" stroke-width="1" stroke-linecap="round" vector-effect="non-scaling-stroke" fill="none" />
<line x1="116" y1="174" x2="-49" y2="-5" stroke="#000000" stroke-width="1" stroke-linecap="round" vector-effect="non-scaling-stroke" fill="none" />
<line x1="-39" y1="56" x2="43" y2="39" stroke="#000000" stroke-width="1" stroke-linecap="round" vector-effect="non-scaling-stroke" fill="none" />
<line x1="-105" y1="-183" x2="-118" y2="188" stroke="#000000" stroke-width="1" stroke-linecap="round" vector-effect="non-scaling-stroke" fill="none" />
<line x1="120" y1="-46" x2="3" y2="-42" stroke="#000000" stroke-width="1" stroke-linecap="round" vector-effect="non-scaling-stroke" fill="none" />
<line x1="-40" y1="-120" x2="-74" y2="51" stroke="#000000" stroke-width="1" stroke-linecap="round" vector-effect="non-scaling-stroke" fill="none" />
<line x1="24" y1="-128" x2="158" y2="38" stroke="#000000" stroke-width="1" stroke-linecap="round" vector-effect="non-scaling-stroke" fill="none" />
<line x1="-49" y1="-5" x2="152" y2="111" stroke="#000000" stroke-width="1" stroke-linecap="round" vector-effect="non-scaling-stroke" fill="none" />
<line x1="149" y1="104" x2="-73" y2="-29" stroke="#000000" stroke-width="1" stroke-linecap="round" vector-effect="non-scaling-stroke" fill="none" />
<line x1="-22" y1="-28" x2="152" y2="176" stroke="#000000" stroke-width="1" stroke-linecap="round" vector-effect="non-scaling-stroke" fill="none" />
<line x1="12" y1="41" x2="99" y2="93" stroke="#000000" stroke-width="1" stroke-linecap="round" vector-effect="non-scaling-stroke" fill="none" />
<line x1="-157" y1="162" x2="123" y2="-56" stroke="#000000" stroke-width="1" stroke-linecap="round" vector-effect="non-scaling-stroke" fill="none" />
<line x1="105" y1="125" x2="-43" y2="-149" stroke="#000000" stroke-width="1" stroke-linecap="round" vector-effect="non-scaling-stroke" fill="none" />
<line x1="78" y1="198" x2="-145" y2="-27" stroke="#000000" stroke-width="1" stroke-linecap="round" vector-effect="non-scaling-stroke" fill="none" />
<line x1="80" y1="145" x2="138" y2="9" stroke="#000000" stroke-width="1" stroke-linecap="round" vector-effect="non-scaling-stroke" fill="none" />
<line x1="-97" y1="-194" x2="159" y2="-130" stroke="#000000" stroke-width="1" stroke-linecap="round" vector-effect="non-scaling-stroke" fill="none" />
<line x1="45" y1="-5" x2="158" y2="13" stroke="#000000" stroke-width="1" stroke-linecap="round" vector-effect="non-scaling-stroke" fill="none" />
<line x1="-74" y1="51" x2="114" y2="-31" stroke="#000000" stroke-width="1" stroke-linecap="round" vector-effect="non-scaling-stroke" fill="none" />
<line x1="-136" y1="25" x2="-188" y2="-189" stroke="#000000" stroke-width="1" stroke-linecap="round" vector-effect="non-scaling-stroke" fill="none" />
<line x1="82" y1="-53" x2="180" y2="13" stroke="#000000" stroke-width="1" stroke-linecap="round" vector-effect="non-scaling-stroke" fill="none" />
<line x1="82" y1="-118" x2="-43" y2="-149" stroke="#000000" stroke-width="1" stroke-linecap="round" vector-effect="non-scaling-stroke" fill="none" />
<line x1="-70" y1="41" x2="197" y2="12" stroke="#000000" stroke-width="1" stroke-linecap="round" vector-effect="non-scaling-stroke" fill="none" />
<line x1="-19" y1="175" x2="138" y2="9" stroke="#000000" stroke-width="1" stroke-linecap="round" vector-effect="non-scaling-stroke" fill="none" />
<line x1="-40" y1="189" x2="-36" y2="145" stroke="#000000" stroke-width="1" stroke-linecap="round" vector-effect="non-scaling-stroke" fill="none" />
<line x1="46" y1="-178" x2="86" y2="137" stroke="#000000" stroke-width="1" stroke-linecap="round" vector-effect="non-scaling-stroke" fill="none" />
<line x1="-60" y1="-14" x2="187" y2="-136" stroke="#000000" stroke-width="1" stroke-linecap="round" vector-effect="non-scaling-stroke" fill="none" />
<line x1="194" y1="-152" x2="-200" y2="-131" stroke="#000000" stroke-width="1" stroke-linecap="round" vector-effect="non-scaling-stroke" fill="none" />
<line x1="-186" y1="-115" x2="149" y2="104" stroke="#000000" stroke-width="1" stroke-linecap="round" vector-effect="non-scaling-stroke" fill="none" />
<line x1="-73" y1="-29" x2="-188" y2="109" stroke="#000000" stroke-width="1" stroke-linecap="round" vector-effect="non-scaling-stroke" fill="none" />
<line x1="76" y1="7" x2="51" y2="9" stroke="#000000" stroke-width="1" stroke-linecap="round" vector-effect="non-scaling-stroke" fill="none" />
<line x1="-43" y1="-149" x2="-196" y2="-143" stroke="#000000" stroke-width="1" stroke-linecap="round" vector-effect="non-scaling-stroke" fill="none" />
<line x1="80" y1="145" x2="-164" y2="101" stroke="#000000" stroke-width="1" stroke-linecap="round" vector-effect="non-scaling-stroke" fill="none" />
<line x1="197" y1="12" x2="143" y2="157" stroke="#000000" stroke-width="1" stroke-linecap="round" vector-effect="non-scaling-stroke" fill="none" />
<line x1="80" y1="145" x2="-148" y2="99" stroke="#000000" stroke-width="1" stroke-linecap="round" vector-effect="non-scaling-stroke" fill="none" />
<line x1="-164" y1="-42" x2="138" y2="9" stroke="#000000" stroke-width="1" stroke-linecap="round" vector-effect="non-scaling-stroke" fill="none" />
<line x1="24" y1="-128" x2="-109" y2="173" stroke="#000000" stroke-width="1" stroke-linecap="round" vector-effect="non-scaling-stroke" fill="none" />
<line x1="80" y1="145" x2="158" y2="-183" stroke="#000000" stroke-width="1" stroke-linecap="round" vector-effect="non-scaling-stroke" fill="none" />
<line x1="184" y1="53" x2="43" y2="-75" stroke="#000000" stroke-width="1" stroke-linecap="round" vector-effect="non-scaling-stroke" fill="none" />
<line x1="-54" y1="-83" x2="-43" y2="-59" stroke="#000000" stroke-width="1" stroke-linecap="round" vector-effect="non-scaling-stroke" fill="none" />
<line x1="-119" y1="-61" x2="-49" y2="-5" stroke="#000000" stroke-width="1" stroke-linecap="round" vector-effect="non-scaling-stroke" fill="none" />
<line x1="-24" y1="164" x2="60" y2="-8" stroke="#000000" stroke-width="1" stroke-linecap="round" vector-effect="non-scaling-stroke" fill="none" />
<line x1="43" y1="39" x2="-144" y2="-21" stroke="#000000" stroke-width="1" stroke-linecap="round" vector-effect="non-scaling-stroke" fill="none" />
<line x1="194" y1="-152" x2="4" y2="95" stroke="#000000" stroke-width="1" stroke-linecap="round" vector-effect="non-scaling-stroke" fill="none" />
<line x1="17" y1="103" x2="180" y2="13" stroke="#000000" stroke-width="1" stroke-linecap="round" vector-effect="non-scaling-stroke" fill="none" />
<line x1="-60" y1="-14" x2="-129" y2="155" stroke="#000000" stroke-width="1" stroke-linecap="round" vector-effect="non-scaling-stroke" fill="none" />
<line x1="-97" y1="-194" x2="83" y2="21" stroke="#000000" stroke-width="1" stroke-linecap="round" vector-effect="non-scaling-stroke" fill="none" />
<line x1="-43" y1="5" x2="43" y2="-75" stroke="#000000" stroke-width="1" stroke-linecap="round" vector-effect="non-scaling-stroke" fill="none" />
<line x1="-186" y1="-115" x2="-101" y2="100" stroke="#000000" stroke-width="1" stroke-linecap="round" vector-effect="non-scaling-stroke" fill="none" />
<line x1="149" y1="-89" x2="-105" y2="-183" stroke="#000000" stroke-width="1" stroke-linecap="round" vector-effect="non-scaling-stroke" fill="none" />
<line x1="184" y1="53" x2="-43" y2="5" stroke="#000000" stroke-width="1" stroke-linecap="round" vector-effect="non-scaling-stroke" fill="none" />
<line x1="24" y1="-128" x2="45" y2="-5" stroke="#000000" stroke-width="1" stroke-linecap="round" vector-effect="non-scaling-stroke" fill="none" />
<line x1="-200" y1="58" x2="116" y2="174" stroke="#000000" stroke-width="1" stroke-linecap="round" vector-effect="non-scaling-stroke" fill="none" />
<line x1="184" y1="51" x2="-129" y2="155" stroke="#000000" stroke-width="1" stroke-linecap="round" vector-effect="non-scaling-stroke" fill="none" />
<line x1="-97" y1="-115" x2="-22" y2="-28" stroke="#000000" stroke-width="1" stroke-linecap="round" vector-effect="non-scaling-stroke" fill="none" />
<line x1="152" y1="111" x2="116" y2="174" stroke="#000000" stroke-width="1" stroke-linecap="round" vector-effect="non-scaling-stroke" fill="none" />
<line x1="198" y1="-145" x2="-39" y2="56" stroke="#000000" stroke-width="1" stroke-linecap="round" vector-effect="non-scaling-stroke" fill="none" />
<line x1="-109" y1="173" x2="158" y2="38" stroke="#000000" stroke-width="1" stroke-linecap="round" vector-effect="non-scaling-stroke" fill="none" />
<line x1="158" y1="38" x2="158" y2="13" stroke="#000000" stroke-width="1" stroke-linecap="round" vector-effect="non-scaling-stroke" fill="none" />
<line x1="87" y1="12" x2="-122" y2="-107" stroke="#000000" stroke-width="1" stroke-linecap="round" vector-effect="non-scaling-stroke" fill="none" />
<line x1="-22" y1="-28" x2="-135" y2="50" stroke="#000000" stroke-width="1" stroke-linecap="round" vector-effect="non-scaling-stroke" fill="none" />
<line x1="51" y1="135" x2="-120" y2="105" stroke="#000000" stroke-width="1" stroke-linecap="round" vector-effect="non-scaling-stroke" fill="none" />
<line x1="-39" y1="56" x2="-144" y2="-21" stroke="#000000" stroke-width="1" stroke-linecap="round" vector-effect="non-scaling-stroke" fill="none" />
<line x1="-122" y1="-107" x2="137" y2="-24" stroke="#000000" stroke-width="1" stroke-linecap="round" vector-effect="non-scaling-stroke" fill="none" />
<line x1="-148" y1="99" x2="158" y2="-183" stroke="#000000" stroke-width="1" stroke-linecap="round" vector-effect="non-scaling-stroke" fill="none" />
<line x1="-99" y1="136" x2="98" y2="32" stroke="#000000" stroke-width="1" stroke-linecap="round" vector-effect="non-scaling-stroke" fill="none" />
<line x1="-120" y1="105" x2="12" y2="-80" stroke="#000000" stroke-width="1" stroke-linecap="round" vector-effect="non-scaling-stroke" fill="none" />
<line x1="-132" y1="189" x2="76" y2="7" stroke="#000000" stroke-width="1" stroke-linecap="round" vector-effect="non-scaling-stroke" fill="none" />
<line x1="-164" y1="-42" x2="158" y2="-183" stroke="#000000" stroke-width="1" stroke-linecap="round" vector-effect="non-scaling-stroke" fill="none" />
<line x1="-118" y1="188" x2="-122" y2="-107" stroke="#000000" stroke-width="1" stroke-linecap="round" vector-effect="non-scaling-stroke" fill="none" />
<line x1="-39" y1="56" x2="133" y2="159" stroke="#000000" stroke-width="1" stroke-linecap="round" vector-effect="non-scaling-stroke" fill="none" />
<line x1="144" y1="-94" x2="48" y2="-177" stroke="#000000" stroke-width="1" stroke-linecap="round" vector-effect="non-scaling-stroke" fill="none" />
<line x1="191" y1="-142" x2="-92" y2="-67" stroke="#000000" stroke-width="1" stroke-linecap="round" vector-effect="non-scaling-stroke" fill="none" />
<line x1="-121" y1="117" x2="43" y2="-75" stroke="#000000" stroke-width="1" stroke-linecap="round" vector-effect="non-scaling-stroke" fill="none" />
<line x1="-101" y1="100" x2="149" y2="104" stroke="#000000" stroke-width="1" stroke-linecap="round" vector-effect="non-scaling-stroke" fill="none" />
<line x1="86" y1="137" x2="-132" y2="189" stroke="#000000" stroke-width="1" stroke-linecap="round" vector-effect="non-scaling-stroke" fill="none" />
<line x1="152" y1="111" x2="-119" y2="-61" stroke="#000000" stroke-width="1" stroke-linecap="round" vector-effect="non-scaling-stroke" fill="none" />
<line x1="-43" y1="5" x2="-121" y2="117" stroke="#000000" stroke-width="1" stroke-linecap="round" vector-effect="non-scaling-stroke" fill="none" />
<line x1="-36" y1="145" x2="-196" y2="-3" stroke="#000000" stroke-width="1" stroke-linecap="round" vector-effect="non-scaling-stroke" fill="none" />
</svg>