<?xml version="1.0" encoding="UTF8" ?>
<svg xmlns="http://www.w3.org/2000/svg" version="1.0" baseProfile="full" viewBox="-196.960000 -200.960000 390.920000 403.920000" >
<line x1="106" y1="-145" x2="172" y2="-129" stroke="#000000" stroke-width="1" stroke-linecap="round" vector-effect="non-scaling-stroke" fill="none" />
<line x1="-85" y1="-14" x2="-140" y2="-22" stroke="#000000" stroke-width="1" stroke-linecap="round" vector-effect="non-scaling-stroke" fill="none" />
<line x1="178" y1="-141" x2="-92" y2="3" stroke="#000000" stroke-width="1" stroke-linecap="round" vector-effect="non-scaling-stroke" fill="none" />
<line x1="-85" y1="-14" x2="-186" y2="169" stroke="#000000" stroke-width="1" stroke-linecap="round" vector-effect="non-scaling-stroke" fill="none" />
<line x1="22" y1="-69" x2="-78" y2="-66" stroke="#000000" stroke-width="1" stroke-linecap="round" vector-effect="non-scaling-stroke" fill="none" />
<line x1="-178" y1="-174" x2="-170" y2="18" stroke="#000000" stroke-width="1" stroke-linecap="round" vector-effect="non-scaling-stroke" fill="none" />
<line x1="-178" y1="-174" x2="-145" y2="130" stroke="#000000" stroke-width="1" stroke-linecap="round" vector-effect="non-scaling-stroke" fill="none" />
<line x1="-114" y1="-34" x2="-193" y2="-197" stroke="#000000" stroke-width="1" stroke-linecap="round" vector-effect="non-scaling-stroke" fill="none" />
<line x1="-132" y1="178" x2="-114" y2="-34" stroke="#000000" stroke-width="1" stroke-linecap="round" vector-effect="non-scaling-stroke" fill="none" />
<line x1="90" y1="107" x2="-23" y2="-44" stroke="#000000" stroke-width="1" stroke-linecap="round" vector-effect="non-scaling-stroke" fill="none" />
<line x1="105" y1="98" x2="-186" y2="169" stroke="#000000" stroke-width="1" stroke-linecap="round" vector-effect="non-scaling-stroke" fill="none" />
<line x1="64" y1="-23" x2="-90" y2="-122" stroke="#000000" stroke-width="1" stroke-linecap="round" vector-effect="non-scaling-stroke" fill="none" />
<line x1="12" y1="-193" x2="-56" y2="75" stroke="#000000" stroke-width="1" stroke-linecap="round" vector-effect="non-scaling-stroke" fill="none" />
<line x1="-132" y1="178" x2="-90" y2="-122" stroke="#000000" stroke-width="1" stroke-linecap="round" vector-effect="non-scaling-stroke" fill="none" />
<line x1="-32" y1="-74" x2="-178" y2="-174" stroke="#000000" stroke-width="1" stroke-linecap="round" vector-effect="non-scaling-stroke" fill="none" />
<line x1="-170" y1="18" x2="178" y2="-141" stroke="#000000" stroke-width="1" stroke-linecap="round" vector-effect="non-scaling-stroke" fill="none" />
<line x1="64" y1="-23" x2="-114" y2="-34" stroke="#000000" stroke-width="1" stroke-linecap="round" vector-effect="non-scaling-stroke" fill="none" />
<line x1="105" y1="98" x2="-48" y2="-120" stroke="#000000" stroke-width="1" stroke-linecap="round" vector-effect="non-scaling-stroke" fill="none" />
<line x1="-32" y1="-74" x2="178" y2="-141" stroke="#000000" stroke-width="1" stroke-linecap="round" vector-effect="non-scaling-stroke" fill="none" />
<line x1="-163" y1="-4" x2="-186" y2="169" stroke="#000000" stroke-width="1" stroke-linecap="round" vector-effect="non-scaling-stroke" fill="none" />
<line x1="100" y1="118" x2="-55" y2="-102" stroke="#000000" stroke-width="1" stroke-linecap="round" vector-effect="non-scaling-stroke" fill="none" />
<line x1="-135" y1="-183" x2="172" y2="46" stroke="#000000" stroke-width="1" stroke-linecap="round" vector-effect="non-scaling-stroke" fill="none" />
<line x1="0" y1="-26" x2="100" y2="118" stroke="#000000" stroke-width="1" stroke-linecap="round" vector-effect="non-scaling-stroke" fill="none" />
<line x1="-32" y1="-74" x2="-170" y2="18" stroke="#000000" stroke-width="1" stroke-linecap="round" vector-effect="non-scaling-stroke" fill="none" />
<line x1="-135" y1="-183" x2="-63" y2="146" stroke="#000000" stroke-width="1" stroke-linecap="round" vector-effect="non-scaling-stroke" fill="none" />
<line x1="-85" y1="-14" x2="95" y2="-112" stroke="#000000" stroke-width="1" stroke-linecap="round" vector-effect="non-scaling-stroke" fill="none" />
<line x1="-140" y1="-22" x2="-48" y2="-120" stroke="#000000" stroke-width="1" stroke-linecap="round" vector-effect="non-scaling-stroke" fill="none" />
<line x1="64" y1="41" x2="-135" y2="-183" stroke="#000000" stroke-width="1" stroke-linecap="round" vector-effect="non-scaling-stroke" fill="none" />
<line x1="-145" y1="130" x2="-32" y2="-74" stroke="#000000" stroke-width="1" stroke-linecap="round" vector-effect="non-scaling-stroke" fill="none" />
<line x1="78" y1="-93" x2="100" y2="118" stroke="#000000" stroke-width="1" stroke-linecap="round" vector-effect="non-scaling-stroke" fill="none" />
<line x1="26" y1="9" x2="28" y2="-2" stroke="#000000" stroke-width="1" stroke-linecap="round" vector-effect="non-scaling-stroke" fill="none" />
<line x1="-48" y1="-120" x2="-85" y2="-14" stroke="#000000" stroke-width="1" stroke-linecap="round" vector-effect="non-scaling-stroke" fill="none" />
<line x1="-4" y1="199" x2="-78" y2="-66" stroke="#000000" stroke-width="1" stroke-linecap="round" vector-effect="non-scaling-stroke" fill="none" />
<line x1="-145" y1="130" x2="110" y2="115" stroke="#000000" stroke-width="1" stroke-linecap="round" vector-effect="non-scaling-stroke" fill="none" />
<line x1="-90" y1="-122" x2="-193" y2="-197" stroke="#000000" stroke-width="1" stroke-linecap="round" vector-effect="non-scaling-stroke" fill="none" />
<line x1="95" y1="-112" x2="105" y2="98" stroke="#000000" stroke-width="1" stroke-linecap="round" vector-effect="non-scaling-stroke" fill="none" />
<line x1="-140" y1="-22" x2="95" y2="-112" stroke="#000000" stroke-width="1" stroke-linecap="round" vector-effect="non-scaling-stroke" fill="none" />
<line x1="189" y1="138" x2="26" y2="9" stroke="#000000" stroke-width="1" stroke-linecap="round" vector-effect="non-scaling-stroke" fill="none" />
<line x1="38" y1="-112" x2="106" y2="-145" stroke="#000000" stroke-width="1" stroke-linecap="round" vector-effect="non-scaling-stroke" fill="none" />
<line x1="190" y1="45" x2="78" y2="-93" stroke="#000000" stroke-width="1" stroke-linecap="round" vector-effect="non-scaling-stroke" fill="none" />
<line x1="-32" y1="-74" x2="110" y2="115" stroke="#000000" stroke-width="1" stroke-linecap="round" vector-effect="non-scaling-stroke" fill="none" />
<line x1="172" y1="46" x2="-63" y2="146" stroke="#000000" stroke-width="1" stroke-linecap="round" vector-effect="non-scaling-stroke" fill="none" />
<line x1="172" y1="46" x2="64" y2="41" stroke="#000000" stroke-width="1" stroke-linecap="round" vector-effect="non-scaling-stroke" fill="none" />
<line x1="78" y1="-93" x2="0" y2="-26" stroke="#000000" stroke-width="1" stroke-linecap="round" vector-effect="non-scaling-stroke" fill="none" />
<line x1="64" y1="-23" x2="-193" y2="-197" stroke="#000000" stroke-width="1" stroke-linecap="round" vector-effect="non-scaling-stroke" fill="none" />
<line x1="-85" y1="-14" x2="-163" y2="-4" stroke="#000000" stroke-width="1" stroke-linecap="round" vector-effect="non-scaling-stroke" fill="none" />
<line x1="28" y1="-2" x2="12" y2="-193" stroke="#000000" stroke-width="1" stroke-linecap="round" vector-effect="non-scaling-stroke" fill="none" />
<line x1="-32" y1="-74" x2="-92" y2="3" stroke="#000000" stroke-width="1" stroke-linecap="round" vector-effect="non-scaling-stroke" fill="none" />
<line x1="-123" y1="170" x2="64" y2="-23" stroke="#000000" stroke-width="1" stroke-linecap="round" vector-effect="non-scaling-stroke" fill="none" />
<line x1="0" y1="-26" x2="190" y2="45" stroke="#000000" stroke-width="1" stroke-linecap="round" vector-effect="non-scaling-stroke" fill="none" />
<line x1="-48" y1="-120" x2="-186" y2="169" stroke="#000000" stroke-width="1" stroke-linecap="round" vector-effect="non-scaling-stroke" fill="none" />
<line x1="-63" y1="146" x2="64" y2="41" stroke="#000000" stroke-width="1" stroke-linecap="round" vector-effect="non-scaling-stroke" fill="none" />
<line x1="95" y1="-112" x2="-163" y2="-4" stroke="#000000" stroke-width="1" stroke-linecap="round" vector-effect="non-scaling-stroke" fill="none" />
<line x1="-145" y1="130" x2="178" y2="-141" stroke="#000000" stroke-width="1" stroke-linecap="round" vector-effect="non-scaling-stroke" fill="none" />
<line x1="-178" y1="-174" x2="110" y2="115" stroke="#000000" stroke-width="1" stroke-linecap="round" vector-effect="non-scaling-stroke" fill="none" />
<line x1="-114" y1="-34" x2="-123" y2="170" stroke="#000000" stroke-width="1" stroke-linecap="round" vector-effect="non-scaling-stroke" fill="none" />
<line x1="-140" y1="-22" x2="-186" y2="169" stroke="#000000" stroke-width="1" stroke-linecap="round" vector-effect="non-scaling-stroke" fill="none" />
<line x1="-55" y1="-102" x2="0" y2="-26" stroke="#000000" stroke-width="1" stroke-linecap="round" vector-effect="non-scaling-stroke" fill="none" />
<line x1="105" y1="98" x2="-163" y2="-4" stroke="#000000" stroke-width="1" stroke-linecap="round" vector-effect="non-scaling-stroke" fill="none" />
<line x1="189" y1="138" x2="-56" y2="75" stroke="#000000" stroke-width="1" stroke-linecap="round" vector-effect="non-scaling-stroke" fill="none" />
<line x1="-90" y1="-122" x2="-114" y2="-34" stroke="#000000" stroke-width="1" stroke-linecap="round" vector-effect="non-scaling-stroke" fill="none" />
<line x1="-55" y1="-102" x2="78" y2="-93" stroke="#000000" stroke-width="1" stroke-linecap="round" vector-effect="non-scaling-stroke" fill="none" />
<line x1="-158" y1="-88" x2="-123" y2="170" stroke="#000000" stroke-width="1" stroke-linecap="round" vector-effect="non-scaling-stroke" fill="none" />
<line x1="-132" y1="178" x2="64" y2="-23" stroke="#000000" stroke-width="1" stroke-linecap="round" vector-effect="non-scaling-stroke" fill="none" />
<line x1="-158" y1="-88" x2="-114" y2="-34" stroke="#000000" stroke-width="1" stroke-linecap="round" vector-effect="non-scaling-stroke" fill="none" />
<line x1="-158" y1="-88" x2="-90" y2="-122" stroke="#000000" stroke-width="1" stroke-linecap="round" vector-effect="non-scaling-stroke" fill="none" />
<line x1="26" y1="9" x2="12" y2="-193" stroke="#000000" stroke-width="1" stroke-linecap="round" vector-effect="non-scaling-stroke" fill="none" />
<line x1="172" y1="-129" x2="38" y2="-112" stroke="#000000" stroke-width="1" stroke-linecap="round" vector-effect="non-scaling-stroke" fill="none" />
<line x1="-48" y1="-120" x2="-163" y2="-4" stroke="#000000" stroke-width="1" stroke-linecap="round" vector-effect="non-scaling-stroke" fill="none" />
<line x1="-158" y1="-88" x2="-193" y2="-197" stroke="#000000" stroke-width="1" stroke-linecap="round" vector-effect="non-scaling-stroke" fill="none" />
<line x1="-178" y1="-174" x2="178" y2="-141" stroke="#000000" stroke-width="1" stroke-linecap="round" vector-effect="non-scaling-stroke" fill="none" />
<line x1="100" y1="118" x2="190" y2="45" stroke="#000000" stroke-width="1" stroke-linecap="round" vector-effect="non-scaling-stroke" fill="none" />
<line x1="-170" y1="18" x2="-145" y2="130" stroke="#000000" stroke-width="1" stroke-linecap="round" vector-effect="non-scaling-stroke" fill="none" />
<line x1="189" y1="138" x2="28" y2="-2" stroke="#000000" stroke-width="1" stroke-linecap="round" vector-effect="non-scaling-stroke" fill="none" />
<line x1="190" y1="45" x2="-55" y2="-102" stroke="#000000" stroke-width="1" stroke-linecap="round" vector-effect="non-scaling-stroke" fill="none" />
<line x1="28" y1="-2" x2="-56" y2="75" stroke="#000000" stroke-width="1" stroke-linecap="round" vector-effect="non-scaling-stroke" fill="none" />
<line x1="22" y1="-69" x2="-4" y2="199" stroke="#000000" stroke-width="1" stroke-linecap="round" vector-effect="non-scaling-stroke" fill="none" />
<line x1="-92" y1="3" x2="-178" y2="-174" stroke="#000000" stroke-width="1" stroke-linecap="round" vector-effect="non-scaling-stroke" fill="none" />
<line x1="105" y1="98" x2="-140" y2="-22" stroke="#000000" stroke-width="1" stroke-linecap="round" vector-effect="non-scaling-stroke" fill="none" />
<line x1="56" y1="27" x2="-23" y2="-44" stroke="#000000" stroke-width="1" stroke-linecap="round" vector-effect="non-scaling-stroke" fill="none" />
<line x1="12" y1="-193" x2="189" y2="138" stroke="#000000" stroke-width="1" stroke-linecap="round" vector-effect="non-scaling-stroke" fill="none" />
<line x1="-170" y1="18" x2="-92" y2="3" stroke="#000000" stroke-width="1" stroke-linecap="round" vector-effect="non-scaling-stroke" fill="none" />
<line x1="178" y1="-141" x2="110" y2="115" stroke="#000000" stroke-width="1" stroke-linecap="round" vector-effect="non-scaling-stroke" fill="none" />
<line x1="26" y1="9" x2="-56" y2="75" stroke="#000000" stroke-width="1" stroke-linecap="round" vector-effect="non-scaling-stroke" fill="none" />
<line x1="-140" y1="-22" x2="-163" y2="-4" stroke="#000000" stroke-width="1" stroke-linecap="round" vector-effect="non-scaling-stroke" fill="none" />
<line x1="90" y1="107" x2="56" y2="27" stroke="#000000" stroke-width="1" stroke-linecap="round" vector-effect="non-scaling-stroke" fill="none" />
<line x1="-158" y1="-88" x2="-132" y2="178" stroke="#000000" stroke-width="1" stroke-linecap="round" vector-effect="non-scaling-stroke" fill="none" />
<line x1="-186" y1="169" x2="95" y2="-112" stroke="#000000" stroke-width="1" stroke-linecap="round" vector-effect="non-scaling-stroke" fill="none" />
<line x1="-170" y1="18" x2="110" y2="115" stroke="#000000" stroke-width="1" stroke-linecap="round" vector-effect="non-scaling-stroke" fill="none" />
<line x1="-193" y1="-197" x2="-123" y2="170" stroke="#000000" stroke-width="1" stroke-linecap="round" vector-effect="non-scaling-stroke" fill="none" />
<line x1="-123" y1="170" x2="-90" y2="-122" stroke="#000000" stroke-width="1" stroke-linecap="round" vector-effect="non-scaling-stroke" fill="none" />
<line x1="-92" y1="3" x2="110" y2="115" stroke="#000000" stroke-width="1" stroke-linecap="round" vector-effect="non-scaling-stroke" fill="none" />
<line x1="-85" y1="-14" x2="105" y2="98" stroke="#000000" stroke-width="1" stroke-linecap="round" vector-effect="non-scaling-stroke" fill="none" />
<line x1="-193" y1="-197" x2="-132" y2="178" stroke="#000000" stroke-width="1" stroke-linecap="round" vector-effect="non-scaling-stroke" fill="none" />
<line x1="-92" y1="3" x2="-145" y2="130" stroke="#000000" stroke-width="1" stroke-linecap="round" vector-effect="non-scaling-stroke" fill="none" />
<line x1="64" y1="-23" x2="-158" y2="-88" stroke="#000000" stroke-width="1" stroke-linecap="round" vector-effect="non-scaling-stroke" fill="none" />
<line x1="-48" y1="-120" x2="95" y2="-112" stroke="#000000" stroke-width="1" stroke-linecap="round" vector-effect="non-scaling-stroke" fill="none" />
<line x1="-132" y1="178" x2="-123" y2="170" stroke="#000000" stroke-width="1" stroke-linecap="round" vector-effect="non-scaling-stroke" fill="none" />
</svg>