<?xml version="1.0" encoding="UTF8" ?>
<svg xmlns="http://www.w3.org/2000/svg" version="1.0" baseProfile="full" viewBox="-172.930000 -199.930000 340.860000 400.860000" >
<line x1="118" y1="70" x2="13" y2="125" stroke="#000000" stroke-width="1" stroke-linecap="round" vector-effect="non-scaling-stroke" fill="none" />
<line x1="95" y1="-1" x2="164" y2="197" stroke="#000000" stroke-width="1" stroke-linecap="round" vector-effect="non-scaling-stroke" fill="none" />
<line x1="-169" y1="135" x2="118" y2="70" stroke="#000000" stroke-width="1" stroke-linecap="round" vector-effect="non-scaling-stroke" fill="none" />
<line x1="38" y1="-196" x2="-25" y2="-52" stroke="#000000" stroke-width="1" stroke-linecap="round" vector-effect="non-scaling-stroke" fill="none" />
<line x1="-88" y1="36" x2="38" y2="-196" stroke="#000000" stroke-width="1" stroke-linecap="round" vector-effect="non-scaling-stroke" fill="none" />
<line x1="36" y1="-89" x2="95" y2="-1" stroke="#000000" stroke-width="1" stroke-linecap="round" vector-effect="non-scaling-stroke" fill="none" />
<line x1="-169" y1="135" x2="37" y2="166" stroke="#000000" stroke-width="1" stroke-linecap="round" vector-effect="non-scaling-stroke" fill="none" />
<line x1="163" y1="-110" x2="102" y2="-171" stroke="#000000" stroke-width="1" stroke-linecap="round" vector-effect="non-scaling-stroke" fill="none" />
<line x1="-88" y1="36" x2="163" y2="-110" stroke="#000000" stroke-width="1" stroke-linecap="round" vector-effect="non-scaling-stroke" fill="none" />
<line x1="36" y1="-89" x2="-166" y2="20" stroke="#000000" stroke-width="1" stroke-linecap="round" vector-effect="non-scaling-stroke" fill="none" />
<line x1="102" y1="-171" x2="-88" y2="36" stroke="#000000" stroke-width="1" stroke-linecap="round" vector-effect="non-scaling-stroke" fill="none" />
<line x1="164" y1="197" x2="-166" y2="20" stroke="#000000" stroke-width="1" stroke-linecap="round" vector-effect="non-scaling-stroke" fill="none" />
<line x1="38" y1="-196" x2="163" y2="-110" stroke="#000000" stroke-width="1" stroke-linecap="round" vector-effect="non-scaling-stroke" fill="none" />
<line x1="163" y1="-110" x2="-25" y2="-52" stroke="#000000" stroke-width="1" stroke-linecap="round" vector-effect="non-scaling-stroke" fill="none" />
<line x1="95" y1="-1" x2="36" y2="-112" stroke="#000000" stroke-width="1" stroke-linecap="round" vector-effect="non-scaling-stroke" fill="none" />
<line x1="37" y1="166" x2="13" y2="125" stroke="#000000" stroke-width="1" stroke-linecap="round" vector-effect="non-scaling-stroke" fill="none" />
<line x1="-169" y1="135" x2="13" y2="125" stroke="#000000" stroke-width="1" stroke-linecap="round" vector-effect="non-scaling-stroke" fill="none" />
<line x1="-88" y1="36" x2="-25" y2="-52" stroke="#000000" stroke-width="1" stroke-linecap="round" vector-effect="non-scaling-stroke" fill="none" />
<line x1="-169" y1="135" x2="-63" y2="-82" stroke="#000000" stroke-width="1" stroke-linecap="round" vector-effect="non-scaling-stroke" fill="none" />
<line x1="13" y1="125" x2="-63" y2="-82" stroke="#000000" stroke-width="1" stroke-linecap="round" vector-effect="non-scaling-stroke" fill="none" />
<line x1="-25" y1="-52" x2="102" y2="-171" stroke="#000000" stroke-width="1" stroke-linecap="round" vector-effect="non-scaling-stroke" fill="none" />
<line x1="-63" y1="-82" x2="37" y2="166" stroke="#000000" stroke-width="1" stroke-linecap="round" vector-effect="non-scaling-stroke" fill="none" />
<line x1="36" y1="-89" x2="164" y2="197" stroke="#000000" stroke-width="1" stroke-linecap="round" vector-effect="non-scaling-stroke" fill="none" />
<line x1="118" y1="70" x2="-63" y2="-82" stroke="#000000" stroke-width="1" stroke-linecap="round" vector-effect="non-scaling-stroke" fill="none" />
<line x1="36" y1="-112" x2="36" y2="-89" stroke="#000000" stroke-width="1" stroke-linecap="round" vector-effect="non-scaling-stroke" fill="none" />
<line x1="102" y1="-171" x2="38" y2="-196" stroke="#000000" stroke-width="1" stroke-linecap="round" vector-effect="non-scaling-stroke" fill="none" />
<line x1="118" y1="70" x2="37" y2="166" stroke="#000000" stroke-width="1" stroke-linecap="round" vector-effect="non-scaling-stroke" fill="none" />
<line x1="-166" y1="20" x2="95" y2="-1" stroke="#000000" stroke-width="1" stroke-linecap="round" vector-effect="non-scaling-stroke" fill="none" />
<line x1="164" y1="197" x2="36" y2="-112" stroke="#000000" stroke-width="1" stroke-linecap="round" vector-effect="non-scaling-stroke" fill="none" />
<line x1="36" y1="-112" x2="-166" y2="20" stroke="#000000" stroke-width="1" stroke-linecap="round" vector-effect="non-scaling-stroke" fill="none" />
</svg>